<?xml version="1.0" standalone="no"?>
<!DOCTYPE svg PUBLIC "-//W3C//DTD SVG 20010904//EN"
 "http://www.w3.org/TR/2001/REC-SVG-20010904/DTD/svg10.dtd">
<svg version="1.0" xmlns="http://www.w3.org/2000/svg"
 width="264.000000pt" height="88.000000pt" viewBox="0 0 264.000000 88.000000"
 preserveAspectRatio="xMidYMid meet">

<g transform="translate(0.000000,88.000000) scale(0.100000,-0.100000)"
fill="#000000" stroke="none">
<path d="M0 440 l0 -440 1320 0 1320 0 0 440 0 440 -1320 0 -1320 0 0 -440z
m180 280 c0 -5 -7 -10 -15 -10 -8 0 -15 -7 -15 -15 0 -8 -4 -15 -10 -15 -5 0
-10 11 -10 25 0 20 5 25 25 25 14 0 25 -4 25 -10z m130 -15 c0 -14 -4 -25 -10
-25 -5 0 -10 7 -10 15 0 8 -7 15 -15 15 -8 0 -15 5 -15 10 0 6 11 10 25 10 20
0 25 -5 25 -25z m310 0 c0 -20 -5 -25 -25 -25 -14 0 -25 5 -25 10 0 6 7 10 15
10 8 0 15 7 15 15 0 8 5 15 10 15 6 0 10 -11 10 -25z m100 10 c0 -8 7 -15 15
-15 8 0 15 -4 15 -10 0 -5 -11 -10 -25 -10 -20 0 -25 5 -25 25 0 14 5 25 10
25 6 0 10 -7 10 -15z m415 -1 c11 -11 15 -30 14 -54 -2 -21 2 -44 9 -52 15
-19 3 -31 -16 -16 -8 7 -31 11 -52 9 -24 -1 -43 3 -54 14 -20 21 -21 79 0 99
20 21 78 20 99 0z m440 0 c11 -11 15 -30 14 -54 -2 -21 2 -44 9 -52 15 -19 3
-31 -16 -16 -8 7 -31 11 -52 9 -24 -1 -43 3 -54 14 -20 21 -21 79 0 99 20 21
78 20 99 0z m-1425 -89 c0 -8 7 -15 15 -15 8 0 15 -4 15 -10 0 -5 -11 -10 -25
-10 -20 0 -25 5 -25 25 0 14 5 25 10 25 6 0 10 -7 10 -15z m160 -10 c0 -20 -5
-25 -25 -25 -14 0 -25 5 -25 10 0 6 7 10 15 10 8 0 15 7 15 15 0 8 5 15 10 15
6 0 10 -11 10 -25z m310 0 c0 -14 -4 -25 -10 -25 -5 0 -10 7 -10 15 0 8 -7 15
-15 15 -8 0 -15 5 -15 10 0 6 11 10 25 10 20 0 25 -5 25 -25z m130 15 c0 -5
-7 -10 -15 -10 -8 0 -15 -7 -15 -15 0 -8 -4 -15 -10 -15 -5 0 -10 11 -10 25 0
20 5 25 25 25 14 0 25 -4 25 -10z m396 -369 c-31 -32 -59 -32 -30 0 17 18 16
19 -34 19 -29 0 -52 5 -52 10 0 6 23 10 52 10 49 0 50 1 35 18 -29 32 -4 34
27 3 l30 -31 -28 -29z m378 58 c-17 -18 -16 -19 34 -19 29 0 52 -4 52 -10 0
-5 -23 -10 -52 -10 -50 0 -51 -1 -34 -19 29 -32 1 -32 -29 -1 l-29 30 29 30
c30 31 58 31 29 -1z m-1276 -56 c37 35 50 22 15 -15 l-27 -28 27 -28 c35 -37
22 -50 -15 -15 l-28 27 -28 -27 c-37 -35 -50 -22 -15 15 l27 28 -27 28 c-35
37 -22 50 15 15 l28 -27 28 27z m465 -65 c-15 -16 -29 -24 -31 -18 -6 18 -40
11 -71 -16 -27 -23 -31 -24 -31 -7 0 31 36 79 69 93 17 7 31 17 31 23 0 6 14
-2 30 -18 l30 -29 -27 -28z"/>
<path d="M1056 694 c-9 -8 -16 -22 -16 -29 0 -7 7 -21 16 -29 8 -9 22 -16 29
-16 7 0 21 7 29 16 9 8 16 22 16 29 0 7 -7 21 -16 29 -8 9 -22 16 -29 16 -7 0
-21 -7 -29 -16z m40 -40 c-7 -7 -14 -8 -22 0 -7 7 -8 14 0 22 7 7 14 8 22 0 7
-7 8 -14 0 -22z"/>
<path d="M1496 694 c-9 -8 -16 -22 -16 -29 0 -18 27 -45 45 -45 18 0 45 27 45
45 0 18 -27 45 -45 45 -7 0 -21 -7 -29 -16z m47 -31 c-7 -2 -21 -2 -30 0 -10
3 -4 5 12 5 17 0 24 -2 18 -5z"/>
</g>
</svg>
