<?xml version="1.0" encoding="utf-8"?>
<!-- Generator: Adobe Illustrator 17.0.0, SVG Export Plug-In . SVG Version: 6.00 Build 0)  -->
<!DOCTYPE svg PUBLIC "-//W3C//DTD SVG 1.1//EN" "http://www.w3.org/Graphics/SVG/1.1/DTD/svg11.dtd">
<svg version="1.1" id="Layer_1" xmlns="http://www.w3.org/2000/svg" xmlns:xlink="http://www.w3.org/1999/xlink" x="0px" y="0px"
	 width="17.705px" height="17.705px" viewBox="0 0 17.705 17.705" enable-background="new 0 0 17.705 17.705" xml:space="preserve">
<path fill="#FFFFFF" d="M8.852,0C3.963,0,0,3.963,0,8.852s3.963,8.852,8.852,8.852c4.889,0,8.852-3.963,8.852-8.852
	S13.741,0,8.852,0z M13.861,11.803c0.158-0.746,0.258-1.538,0.29-2.361h2.351c-0.062,0.815-0.251,1.606-0.566,2.361H13.861z
	 M3.844,5.901c-0.158,0.746-0.258,1.538-0.29,2.361H1.203c0.062-0.815,0.251-1.606,0.566-2.361H3.844z M12.653,5.901
	c0.176,0.756,0.284,1.546,0.318,2.361H9.443V5.901H12.653z M9.443,4.721V1.267c0.269,0.078,0.536,0.209,0.798,0.394
	c0.49,0.346,0.959,0.878,1.356,1.539c0.275,0.457,0.512,0.967,0.71,1.521L9.443,4.721z M6.109,3.2
	C6.505,2.538,6.975,2.006,7.464,1.66c0.262-0.185,0.529-0.316,0.798-0.394v3.455H5.399C5.597,4.167,5.834,3.657,6.109,3.2z
	 M8.262,5.901v2.361H4.734c0.035-0.814,0.141-1.605,0.318-2.361H8.262z M1.769,11.803c-0.315-0.754-0.504-1.546-0.566-2.361h2.351
	c0.032,0.823,0.132,1.615,0.29,2.361H1.769z M4.734,9.442h3.528v2.361h-3.21C4.875,11.047,4.768,10.257,4.734,9.442z M8.262,12.983
	v3.454c-0.269-0.078-0.536-0.209-0.798-0.394c-0.49-0.346-0.959-0.878-1.355-1.539c-0.275-0.457-0.512-0.966-0.71-1.522
	L8.262,12.983z M11.596,14.505c-0.397,0.662-0.866,1.194-1.356,1.539c-0.262,0.184-0.528,0.316-0.798,0.394v-3.455h2.863
	C12.107,13.538,11.87,14.047,11.596,14.505z M9.443,11.803V9.442h3.528c-0.035,0.814-0.141,1.605-0.318,2.361H9.443z M14.152,8.262
	c-0.033-0.823-0.132-1.615-0.29-2.361h2.075c0.315,0.754,0.505,1.546,0.566,2.361H14.152z M15.319,4.721H13.55
	c-0.343-1.084-0.818-2.034-1.389-2.793c0.784,0.376,1.495,0.878,2.115,1.5C14.674,3.823,15.022,4.256,15.319,4.721z M3.428,3.428
	c0.62-0.621,1.331-1.124,2.115-1.5C4.972,2.687,4.498,3.638,4.154,4.721H2.385C2.683,4.256,3.031,3.823,3.428,3.428z M2.385,12.983
	h1.769c0.344,1.083,0.818,2.034,1.389,2.793c-0.784-0.376-1.495-0.878-2.115-1.5C3.031,13.881,2.683,13.448,2.385,12.983z
	 M14.277,14.277c-0.62,0.621-1.331,1.124-2.115,1.5c0.571-0.758,1.045-1.709,1.389-2.793h1.769
	C15.022,13.448,14.674,13.881,14.277,14.277z"/>
</svg>
