<?xml version="1.0" encoding="utf-8"?>
<!-- Generator: Adobe Illustrator 17.0.0, SVG Export Plug-In . SVG Version: 6.00 Build 0)  -->
<!DOCTYPE svg PUBLIC "-//W3C//DTD SVG 1.1//EN" "http://www.w3.org/Graphics/SVG/1.1/DTD/svg11.dtd">
<svg version="1.1" id="Layer_1" xmlns="http://www.w3.org/2000/svg" xmlns:xlink="http://www.w3.org/1999/xlink" x="0px" y="0px"
	 width="15.882px" height="16px" viewBox="0 0 15.882 16" enable-background="new 0 0 15.882 16" xml:space="preserve">
<path id="magnifier-icon_1_" fill="#FFFFFF" d="M15.882,13.92l-4.236-4.236c0.619-0.976,0.979-2.133,0.979-3.372
	C12.624,2.831,9.793,0,6.312,0C2.832,0,0,2.831,0,6.312s2.832,6.312,6.312,6.312c1.178,0,2.281-0.325,3.225-0.888L13.802,16
	L15.882,13.92z M2.353,6.312c0-2.183,1.776-3.959,3.959-3.959s3.959,1.776,3.959,3.959c0,2.183-1.776,3.959-3.959,3.959
	C4.129,10.271,2.353,8.495,2.353,6.312z"/>
</svg>
