<?xml version="1.0" encoding="utf-8"?>
<!-- Generator: Adobe Illustrator 17.0.0, SVG Export Plug-In . SVG Version: 6.00 Build 0)  -->
<!DOCTYPE svg PUBLIC "-//W3C//DTD SVG 1.1//EN" "http://www.w3.org/Graphics/SVG/1.1/DTD/svg11.dtd">
<svg version="1.1" id="Layer_1" xmlns="http://www.w3.org/2000/svg" xmlns:xlink="http://www.w3.org/1999/xlink" x="0px" y="0px"
	 width="197.162px" height="167.34px" viewBox="0 0 197.162 167.34" enable-background="new 0 0 197.162 167.34"
	 xml:space="preserve">
<g>
	<g>
		<path fill="#FFFFFF" d="M165.174,136.166c-6.006,1.607-12.422,2.128-18.259,4.117c9.883-8.474,9.32-21.594,15.918-31.576
			c2.102-2.827,3.835-5.788,6.288-8.473c-4.017,8.051-2.27,18.491-6.881,26.302c-1.777,3.103-4.314,6.112-7.119,8.551
			c0.917-0.035,1.72-0.832,2.524-1.36c7.487-7.472,17.271-9.559,25.364-15.63c3.244-2.587,6.218-5.971,7.641-9.636
			C189.114,120.853,176.791,132.471,165.174,136.166L165.174,136.166z"/>
		<path fill="#FFFFFF" d="M192.145,85.986c-3.666,5.21-8.094,10.06-11.478,15.355c0.381-4.188,0.874-9.348-0.761-13.324
			c-2.834-8.552-5.315-17.237-6.119-26.628l0.113-3.587c2.128,9.587,11.547,16.179,10.955,26.936
			c0.213,2.608-0.591,4.816-1.085,7.114l0.169,0.169l0.422-0.479c1.396-5.272,2.101-10.82,4.272-15.741
			c3.089-7.086,6.937-14.234,5.373-22.786C198.701,63.096,197.277,76.568,192.145,85.986L192.145,85.986z"/>
		<path fill="#FFFFFF" d="M186.365,31.66c6.175,8.368,7.528,21.707,3.031,31.309c-1.678,4.067-2.862,8.403-3.524,12.908
			c-0.31-0.777-0.38-1.819-0.664-2.686c-2.453-9.397-11.35-16.095-15.001-24.957c-1.157-2.896-2.144-5.893-2.693-9.037
			c3.904,7.226,13.535,10.955,16.158,18.914c1.072,2.016,1.015,4.533,1.678,6.698c0.142,0,0.282-0.106,0.282-0.247
			c-1.157-8.199-0.803-16.785,0.31-24.885c-0.07-4.385-0.493-8.643-2.933-12.034C184.572,28.552,185.278,30.3,186.365,31.66
			L186.365,31.66z"/>
		<path fill="#FFFFFF" d="M182.007,30.054c1.621,7.332-0.747,14.48,0.748,21.883l-0.057,0.062
			c-3.99-7.847-12.463-11.547-18.286-17.829c-3.385-3.729-4.85-8.27-5.697-13.077c3.341,8.051,12.352,9.827,17.526,16.61
			c1.733,1.565,2.297,3.729,3.412,5.505l0.183-0.177c-2.975-6.351-3.976-13.499-6.049-20.274c-1.043-2.934-3.103-5.817-5.866-7.671
			C174.704,16.475,180.598,23.568,182.007,30.054L182.007,30.054z"/>
		<path fill="#FFFFFF" d="M163.847,13.233c5.118,4.576,7.432,10.503,8.924,16.644l0.848,1.953
			c-7.432-5.344-14.171-12.519-18.908-20.099l-5.797-5.858C154.006,8.03,159.491,9.32,163.847,13.233L163.847,13.233z"/>
		<path fill="#FFFFFF" d="M46.596,6.845c-5.133,4.498-8.693,10.187-12.499,15.496c-3.413,4.222-7.776,7.014-11.646,10.645
			c2.086-4.329,2.164-9.503,5.124-13.478C31.792,12.154,39.61,9.567,46.596,6.845L46.596,6.845z"/>
		<path fill="#FFFFFF" d="M18.532,22.511c2.495-3.102,5.66-5.26,9.221-6.169c-6.916,4.751-6.465,13.261-8.657,20.339
			c-0.698,2.615-1.911,5.026-2.517,7.712l0.176,0.141c1.15-3.038,3.173-5.901,5.697-8.375c4.913-4.533,12.175-7.36,14.578-14.065
			c-0.106,9.319-7.881,16.645-15.319,21.882c-3.066,2.693-6.028,5.759-7.713,9.215c-0.169-2.349,0.346-4.71,0.177-7.227
			C13.371,37.829,12.778,28.545,18.532,22.511L18.532,22.511z"/>
		<path fill="#FFFFFF" d="M4.544,50.328c-0.211-8.24,3.208-14.974,8.03-21.113c0.141-0.071,0.239-0.212,0.423-0.176
			c-5.309,8.064-0.916,18.224-1.163,27.394l-0.698,9.391c0.105,0.063,0.105,0.345,0.352,0.239c0.311-1.043,0.381-2.165,0.593-3.242
			c1.248-7.573,7.825-12.944,13.57-18.182c1.227-1.367,2.312-2.756,2.94-4.364c-0.466,3.771-1.65,7.572-3.214,11.061
			c-4.47,8.721-12.733,15.876-14.241,25.858C10.403,67.628,3.889,60.473,4.544,50.328L4.544,50.328z"/>
		<path fill="#FFFFFF" d="M0.526,62.052c0.593-2.58,1.051-5.245,2.172-7.614C0.568,65.337,7.9,73.19,10.304,82.636
			c1.008,3.533,1.255,7.333,2.694,10.644c0.134,0.071,0.247-0.07,0.331-0.176c-3.581-10.037,1.586-19.358,6.782-27.218
			c1.261-2.129,1.988-4.499,2.615-6.944c0.557,4.541-0.592,9.771-1.255,14.487c-1.262,6-3.144,11.689-4.786,17.512
			c-1.079,3.638-0.797,7.742-0.24,11.555l-0.522-0.422C12.116,95.058,4.579,89.58,2.338,81.911
			C0.498,75.8-0.729,68.714,0.526,62.052L0.526,62.052z"/>
		<path fill="#FFFFFF" d="M0.181,83.335c0.839,11.555,13.261,17.659,19.02,27.219c1.36,1.953,2.545,4.123,4.363,5.759
			c-0.282-1.227-1.431-2.263-1.854-3.524c-2.016-4.011-2.749-8.791-2.263-13.642c0.556-5.901,3.031-11.377,2.086-17.581
			c5.062,10.913,3.526,24.526,6.352,36.349c0.741,2.587,2.236,4.891,3.216,7.366C20.71,118.195,6.532,111.464,1.922,98.485
			C-0.024,94.015-0.242,88.474,0.181,83.335L0.181,83.335z"/>
		<path fill="#FFFFFF" d="M6.392,109.863c5.794,13.112,20.31,14.197,30.046,22.186c1.79,1.579,3.666,2.932,5.689,3.877l0.106-0.106
			c-2.235-2.023-4.822-4.322-6.387-6.944c-5.696-7.917-3.694-19.013-7.96-27.536c3.878,4.645,7.403,9.461,9.744,14.727
			c3.482,8.587,4.814,18.294,12.872,24.785c-8.721-2.869-18.936-2.064-26.634-7.438C15.464,128.249,7.964,119.493,6.392,109.863
			L6.392,109.863z"/>
		<path fill="#FFFFFF" d="M21.288,134.325c9.291,10.567,24.476,7.042,36.856,9.807c1.749,0.239,3.349,0.938,5.203,0.655
			c-1.473-0.937-3.525-0.833-5.132-1.678c-9.708-3.412-11.131-13.915-16.398-21.001c6.733,4.47,12.386,10.497,18.597,16.335
			c4.463,3.911,9.834,5.716,15.495,6.865c-1.361,0.494-3.144,0.36-4.604,0.741c-10.166,2.503-21.467,6.591-32.245,2.933
			C32.045,146.775,24.813,141.227,21.288,134.325L21.288,134.325z"/>
		<path fill="#FFFFFF" d="M147.422,158.957c-10.476,3.913-21.404-0.176-29.582-6.38c-3.312-2.102-6.231-5.132-10.517-4.865
			c-1.551-0.027-3.046,0.043-4.37,0.423c7.952,3.701,15.326,8.798,22.079,15.319c-1.142,1.298-2.608,2.516-4.003,3.631
			c-6.5-7.008-13.706-13.748-21.77-17.689c-1.579,0.206-3.081,1.15-4.506,1.918c-6.563,4.153-13.056,9.49-17.934,16.024
			l-4.195-3.462c6.697-6.766,14.099-12.04,22.199-15.805c-7.959-2.524-13.154,4.144-19.196,7.537
			c-7.043,4.919-17.166,7.225-25.675,3.834c-4.576-1.734-9.01-4.294-12.323-8.446c6.697,4.612,16.672,5.097,24.286,2.102
			c10.215-4.434,20.832-10.054,33.155-7.368c1.917,0.035,3.792,1.953,5.604,0.317c9.159-2.376,19.521-0.741,27.404,3.447l8.122,3.25
			c7.557,2.799,17.313,2.025,23.786-2.578C156.657,154.312,152.116,157.279,147.422,158.957L147.422,158.957z"/>
		<path fill="#FFFFFF" d="M158.644,148.135c-11.758,4.442-23.589-1.007-34.853-2.827l-2.172-0.274v-0.071
			c5.386-1.218,10.617-2.825,14.903-6.697c6.316-6.069,11.942-12.316,18.95-17.102c-5.204,6.669-5.753,16.158-14.341,20.451
			c-2.128,1.389-4.807,1.636-7.006,2.685c3.13,0.071,5.992-1.049,9.094-1.36c11.52-1.811,24.702,0.043,32.781-9.771
			C172.997,140.008,165.482,145.732,158.644,148.135L158.644,148.135z"/>
		<path fill="#FFFFFF" d="M180.005,115.059c-4.638,3.038-9.348,5.858-13.817,9.312v-0.423c6.837-11.365,3.497-26.966,7.712-39.465
			l1.565-4.188c-0.874,7.79,2.509,14.381,2.27,22.2c-0.24,4.716-1.777,8.903-4.258,12.669h0.423c3.341-4.392,5.965-9.072,9.87-13.26
			c6.077-5.859,12.252-11.865,13.055-19.993C198.885,95.481,191.27,107.374,180.005,115.059L180.005,115.059z"/>
		<path fill="#FFFFFF" d="M161.409,39.859C149.96,15.503,124.834,0.049,98.517,0C87.005,0.218,76.431,2.764,66.765,7.544
			C49.558,15.749,35.5,33.571,30.819,51.237c-7.706,29.73,2.721,59.845,28.234,77.322c18.35,13.161,47.607,15.678,68.206,5.59
			c18.258-7.684,33.98-26.555,38.76-45.231C170.728,73.114,168.655,53.846,161.409,39.859L161.409,39.859z M164.694,64.49
			c0.169,1.192-0.113,2.623,0.548,3.596l-10.051,0.169c-0.24,0.184-0.522,0.317-0.833,0.317l0.283-0.417
			c-0.212-7.881-2.27-14.965-5.3-21.671c-0.114-3.003-3.019-5.026-4.259-7.635c-2.242-1.544-2.905-4.265-5.457-5.625
			c-0.479-0.521-0.691-1.396-1.425-1.566l1.185-0.247c2.411-2.474,5.034-4.878,6.936-7.466
			C156.741,35.672,163.367,48.968,164.694,64.49L164.694,64.49z M136.283,102.25c-0.874-0.833-0.902-2.475-2.439-2.439
			c-0.522-0.071-0.748,0.422-0.748,0.839c-0.028,0.238,0.071,0.521-0.098,0.69l-3.173-2.785c1.496-0.775,2.609-2.792,3.764-4.258
			c2.934-4.089,4.64-8.658,6.119-13.331c0.48,0.386,1.115,0.423,1.593,0.106c0.466-0.382,0.564-1.122,0.254-1.607l-1.17-1.255
			c0.155-2.093,0.719-4.152,0.493-6.289l0.776,0.247c3.243-0.028,6.557,0.176,9.7-0.134l-0.494,0.557
			c-0.79,12.598-5.188,23.969-13.987,33.254C137.256,104.624,136.099,103.582,136.283,102.25L136.283,102.25z M128.077,112.303
			c-1.82-1.672,1.127-3.074,1.677-4.619c-0.31-1.628-2.128-2.537-3.524-2.995c-0.662-0.373-0.438-1.22-0.493-1.77
			c0.635-0.641,1.269-1.156,1.579-1.995l0.24,0.664l4.286,4.434c0,1.014,0.183,1.881,1.156,2.339
			c0.479,0.204,1.015-0.211,1.438-0.077h-0.239c-1.862,2.03-4.132,3.559-6.219,5.209l-0.493,0.655
			C127.259,113.459,128.669,113.135,128.077,112.303L128.077,112.303z M108.577,58.218c-0.564,0.211-1.156,0.591-1.776,0.309
			c-0.606-0.626-1.367-1.466-2.34-1.572c-0.664,0.178-1.128,1.016-1.918,0.564c1.254-1.366,3.483-1.613,4.428-3.496
			c0.267-0.902,0.521-1.847,0.422-2.785c-0.353-0.423-0.874-0.802-1.339-0.423c-0.69,1.157-2.284,1.396-3.031,2.623l-2.51-0.847
			c-0.424-2.292,0.161-5.231-0.501-7.219c1.332,0.487,2.799,0.522,4.196,0.839c3.566,0.909,6.808,2.58,9.953,4.532
			c-0.733,0.247-1.508,1.122-2.101,1.678c-0.029,0.628,0.663,0.452,0.945,0.832l0.663-0.24
			C112.596,55.735,108.959,55.313,108.577,58.218L108.577,58.218z M111.496,87.113c-0.056,1.255-1.846,1.219-2.679,2.087
			c-0.48-0.176-0.113-0.663,0-0.938C109.65,87.6,110.283,86.931,111.496,87.113L111.496,87.113z M131.25,53.677
			c1.156,0.247,1.846,1.608,3.016,1.855c1.029,1.601,1.424,3.447,1.933,5.265c-0.932,1.051-1.002,3.384-3.032,2.996
			c-0.48-1.114,0.917-1.77,0.593-2.819c0.366-0.283,0.916-0.416,1.029-0.945c-0.086-1.05-1.411-0.839-1.622-1.918
			c-0.409-0.592-1.113-0.528-1.664-0.732c-1.339-0.628-2.581,2.678-2.933,0.063c0.423-0.345,0.663-0.867,0.352-1.325
			c-1.156-0.628-1.256-2.228-2.523-2.862c-1.706,0.042-3.271-0.726-4.949-0.345c-1.072-0.247-2.341-0.972-3.172,0.176
			c-0.071,0.875-0.537,1.6-0.663,2.447c-0.395-0.218-0.734-0.6-0.945-1.016c3.074-3.426,6.584-6.879,9.799-10.222l0.183-0.423
			c1.607,1.988,3.484,3.977,4.668,6.21C131.601,51.407,129.021,52.803,131.25,53.677L131.25,53.677z M137.355,72.168
			c-0.591,1.89-0.522,4.054-1.002,5.971c-0.099,0.318-0.099,0.691-0.324,1.015c-0.592-1.184-1.072-2.763-2.439-3.462
			c-1.156-0.62-0.422-2.192-1.494-2.932l-1.085-1.079C132.856,72.485,135.267,72.281,137.355,72.168L137.355,72.168z
			 M122.804,42.545c-1.834,2.094-4.216,3.977-5.782,6.176l-0.253-0.734c-4.568-3.728-9.869-5.583-15.671-6.379l-0.902,0.162
			l0.069-9.447l-0.352-0.775c3.857,0.599,7.706,1.121,11.244,2.376c4.527,1.607,8.713,4.054,12.563,7.255l0.845,0.351
			L122.804,42.545L122.804,42.545z M113.245,94.227c3.074,0.281,5.963,0.938,8.726,1.98c0.692,0,1.467-0.063,1.918-0.584
			c-0.169-1.156,1.226-1.671,1.085-2.827c0.593-0.973,0.169-2.34,1.002-3.18c0.112-1.22-0.058-2.581-0.833-3.518
			c-0.761-0.494-1.451,0.134-2.199,0.239c-0.832,0.628-0.522,2.482-1.974,2.094c-0.352,0.487-1.029,0.487-1.509,0.354
			c-0.112-0.184-0.352-0.213-0.281-0.417c1.043-0.536,2.905-0.176,3.031-1.854c0.776-0.671,1.959-0.381,2.692-1.184
			c0.522-0.847,0.762-1.573,1.496-2.349c0.071-0.346,0.212-0.69,0.183-1.071c0.212,0.479,0.212,1.157,0.832,1.424
			c0.804,0.247,1.157-0.416,1.509-0.945c-0.041-0.275,0.169-0.691,0.48-0.416c0.874,0.699,2.1,0.099,3.115,0.184
			c0.861-0.283,1.807-0.459,2.75-0.494c-0.832,3.842-2.79,7.43-5.103,10.786c-0.86,1.071-1.636,2.227-2.608,3.278
			c-0.296-0.804-0.282-1.889-0.973-2.624l-0.423,0.107c-0.564,1.114-1.678,2.059-1.537,3.349c-0.832,1.332-2.932,0.212-4.188,0.91
			c-1.494,0.457-2.298-1.008-3.496-1.326c-1.312-0.557-2.848-0.592-4.103-1.254C112.792,94.579,112.977,94.326,113.245,94.227
			L113.245,94.227z M106.716,4.265c13.973,1.917,26.493,7.466,37.04,17.519l-1.199,0.48c-1.918,2.064-4.145,3.743-5.273,6.118
			c-0.127-0.663-1.114-1.12-1.425-1.748c-0.21-1.918-2.044-3.737-3.694-4.716c-1.367-0.248-1.678-2.299-3.355-1.671
			c-1.397-1.184-3.145-0.311-4.499,0.345v0.176c-6.626-3.771-14.03-6.105-22.023-6.697c-0.395,0-0.592,0.309-1.008,0.24
			c0.417-0.276,0.2-1.122,0.172-1.594c-0.221-0.359-0.63-0.776-1.117-0.5c-0.176,0.247-0.324,0.528-0.324,0.839
			c0.218-3.102,0.324-6.874-0.098-9.629C102.035,4.089,104.488,3.878,106.716,4.265L106.716,4.265z M104.037,18.259
			c6.119,0.733,11.52,2.404,16.933,4.851c0.791,1.219,2.37,1.811,2.567,3.348c-0.79,2.121,2.834,2.094,1.197,4.265
			c-0.112,0.69,0.48,1.072,0.72,1.6c0.211,0.592-0.099,1.495,0.606,1.847c1.254,0.275,1.776-1.397,3.03-0.944
			c1.636,1.184,1.989,3.136,1.989,4.956c0.211,1.149,1.184,1.924,2.199,2.34c2.059-0.627,1.072,1.678,2.51,2.27
			c1.607,0.197,2.41,2.263,4.187,2.094c1.579,1.184,2.439,2.926,3.851,4.258c-0.043,0.311,0.126,0.592,0.408,0.699
			c0.846,0.204,1.367-0.388,2.086-0.416c2.693,5.504,4.019,11.61,4.54,18.067l0.325,0.662c-3.383-0.034-6.767,0.036-10.236,0.247
			c-0.099-1.995,0.043-4.08-1.072-5.689c0.564-1.05,0.663-2.411,0.592-3.595c-0.21-0.522-0.676-0.063-0.902,0
			c-1.115,1.085-1.27,2.58-1.847,3.85c-0.958,1.353-1.099,3.404-0.535,4.949l0.422,0.423l-3.905-0.085
			c0.929-0.592-0.804-1.734,0.141-2.686l1.775-0.346c0.551-1.29,1.946-2.235,1.918-3.765c0.761-0.937,1.467-2.156,0.916-3.426
			c-0.845-1.917,1.425-3.87-0.324-5.689c0.169-0.515-0.21-1.283-0.845-1.255c-0.55-0.169-1.185,0-1.185-0.762
			c0.324-0.485,1.128-0.98,0.945-1.74c-0.422-0.529-1.085-0.07-1.607-0.106c-0.142-0.846,1.438-1.749,0.071-2.517
			c-0.946-0.17-1.467,1.015-2.412,0.598c-0.41-0.352-0.718-0.944-0.338-1.437l-2.101-2.581c-0.211-0.247-0.804,0.135-0.832-0.345
			c0.142-2.058-2.368-3.214-2.51-5.267c-0.774-0.704-0.155-1.995-1.156-2.587c-0.564-0.423-1.185-0.902-1.945-0.592
			c-0.874-1.262-1.89-2.482-3.087-3.596c-0.339-0.105-0.592,0.106-0.748,0.318c0.156,0.973,1.312,1.53,1.241,2.608
			c-0.169-0.035-0.311,0-0.409,0.141c0.142,1.015,0.946,1.819,1.594,2.517c-5.471-4.224-11.929-6.423-18.767-7.536
			c-1.325-0.036-2.694-0.592-4.026-0.142c0.324-3.031,0.114-6.492,0.185-9.743l-0.354-0.661
			C101.14,18.358,102.543,18.047,104.037,18.259L104.037,18.259z M98.172,58.456l0.586,0.317c-0.726,0.036-1.559-0.423-2.186,0.099
			c-0.43,0.317-0.148,0.874,0,1.254c1.248,0.494,1.537,2.553,3.201,1.749c0.704,0.148,1.571,0.283,1.811,1.094
			c1.016,0.373,1.156,2.156,2.524,1.776c-0.071,0.655-0.282,1.812,0.522,2.326c-0.212,0.592-0.973,0.847-0.946,1.614
			c-0.168,0.204-0.351,0.556-0.127,0.839c1.283,0.133,1.213,1.6,1.807,2.396c-0.283,1.023,0.07,2.059,0.943,2.623
			c-0.14,1.191-0.663,2.199-1.184,3.25c-1.354,0.662-3.595-1.016-4.09,1.424c-0.768,0.846-0.113,2.692-1.614,2.755
			c-2.848,0.219-5.506-0.408-7.705-2.094c1.431-0.726,3.878,0.283,4.356-1.847c0.381-0.31,0.53-0.874,0.353-1.324
			c0.662-0.663,0.91-1.538,1.255-2.334c-0.515-0.53-0.282-0.811-0.162-1.431c-1.446-1.467-3.383-0.699-5.202-0.663
			c-1.092,0.62-0.05,1.811-0.776,2.572c-1.396,0.177-1.431,1.537-2.411,2.341c-0.557-0.247-0.972-1.008-0.938-1.564h0.184
			c-0.078,0.274,0.099,0.521,0.345,0.592c1.318,0.204,0.903-1.298,1.318-1.96c0.218-0.833,2.165-1.981,0.6-2.581
			c-0.077-0.345,0.205-0.803-0.247-1.015c-0.486,0.212-1.297,0.212-1.361,0.946c0.247,0.633,0,1.261-0.556,1.677h-0.282
			c0.106-0.416-0.211-0.699-0.493-0.847c-0.789,0.043-1.459,0.628-2.263,0.431c-1.121,0.24-2.375,0.451-3.524,0.487
			c-0.135-0.663,0.909-0.459,1.121-1.079c-0.183-1.051,0.515-1.677,0.973-2.447c0.282-0.275,0.804-0.177,1.129-0.07
			c0.268,0.275,0.549,0.522,0.965,0.422l0.352-0.599c1.05,0.634,0.459,3.631,2.503,2.333c0.325-1.283,0.043-2.819,0.6-4.003
			c-0.458-1.128,0.74-1.572,1.086-2.348c1.079,0.113,0.973-1.107,1.431-1.671c1.635-0.485,3.383-0.873,4.427-2.615
			c-0.424-0.874-0.142-2.128-0.833-2.828C96.388,58.218,97.607,57.836,98.172,58.456L98.172,58.456z M96.572,123.193l-0.979-0.669
			c-12.986-0.698-24.09-6.007-33.783-14.48c1.565-0.169,2.157,1.918,3.87,1.396c1.882-0.211,3.348-1.707,5.343-1.396
			c0.973,0.035,2.2,0,2.792-0.945c0.31-1.043-0.811-1.571-1.008-2.41c6.592,4.928,14.023,8.029,22.503,8.459l0.831-0.359v9.214
			L96.572,123.193L96.572,123.193z M59.991,72.873l-0.529-0.839c1.058,0.762,2.136,0.528,3.363,0.309
			c-1.713,0.558-1.085,2.658-1.741,3.949c-0.12,0.626,0.832,0.803,0.726,1.431c-0.846,0.416-0.952,1.326-1.325,1.981
			C60.963,77.372,60.061,75.171,59.991,72.873L59.991,72.873z M49.423,84.914c-0.945,0.099-0.698,1.148-1.093,1.663
			c0.085-2.439-1.001-4.807-1.325-7.289l-0.761-6.415l-0.424-0.592c3.074,0.451,6.458,0.161,9.701,0.246l0.768-0.36
			c-0.282,1.537-0.338,3.771,0.769,5.133c-0.38-0.417-0.937-1.643-1.847-1.609c-1.784,0.107-1.918,2.447-3.701,2.518
			c-1.467,1.219-1.671,2.933-1.988,4.611C50.149,83.476,49.035,84.138,49.423,84.914L49.423,84.914z M56.544,68.757l-0.91-0.354
			l-9.567,0.17c0.874-10.672,3.814-20.479,9.982-28.96l3.772-4.78l0.071-0.663c2.235,2.623,4.709,5.054,7.36,7.36
			c-6.881,7.403-10.363,16.271-11.132,26.211C56.269,68.086,56.155,68.502,56.544,68.757L56.544,68.757z M96.141,28.065
			c-1.804-0.388-3.659,0.233-5.505,0.417c-7.79,1.6-15.009,4.921-20.944,10.61l-0.24-0.663c-2.334-2.164-4.462-4.885-7.043-6.535
			c2.228-1.319,4.216-3.265,6.38-4.773c8.093-5.45,17.159-8.516,27.282-9.115C95.725,21.291,96.007,24.752,96.141,28.065
			L96.141,28.065z M80.512,80.72c0.028,0.352,0.451,0.669,0.839,0.423c0.381-0.529-0.839-1.439,0.063-1.748
			c0.564,0.627,0.282,1.678,0.599,2.403c0.282,0.395,0.381,0.839,0.318,1.368c-0.952,1.148-2.27,2.165-2.933,3.411
			c-0.628-1.564-2.03-2.819-2.658-4.419c-1-1.826-1.529-3.878-2.509-5.689c0.832,1.043,3.073-0.141,3.073,1.847
			c0.134,0.105,0.353,0.062,0.515,0.062c0.282-0.309,0.317-0.345,0.677-0.168c0.169,0.346,1.001,0.521,0.345,0.944
			C79.082,79.88,79.709,80.579,80.512,80.72L80.512,80.72z M90.875,107.938l1.671,0.768c-6.063-1.494-12.584-3.595-17.829-7.958
			c-0.902-0.515-1.494-1.707-2.587-1.777c2.453-1.981,4.899-4.612,6.951-7.121c0.909,1.67,2.862,2.581,4.363,3.701
			c2.637,1.22,5.386,3.455,8.474,2.82c-0.958,0.36-1.839,0.888-2.608,1.72c-0.43,0.937-0.282,2.333-1.544,2.75
			C87.844,104.837,89.621,106.508,90.875,107.938L90.875,107.938z M68.619,95.623l-0.353-2.164
			c-1.987-1.785-1.367-4.858-1.677-7.121c-1.396-1.113-0.282-2.925-1.248-4.179c0.021-2.031-3.158-2.728-2.171-4.964
			c-0.388-0.556-0.867-1.29-0.416-1.987c0.62-0.733,1.98,0.077,2.404-1.008l0.275-1.855c0.74-0.422,1.776,0.53,2.165-0.493
			c0.704-1.74-2.573-3.87,0.246-4.779c0.945-0.099,2.242-0.31,2.615,0.847c0.219,1.324,0.564,2.748,0.064,4.116
			C71.44,72.38,70.6,73.19,70.6,73.776c-0.55,0.239-1.079,0.803-1.734,0.599c-0.282-0.459-0.775-1.261-1.445-1.185
			c-0.522,0.726,0.218,1.494,0.105,2.326c-0.169,0.494-0.036,1.051-0.345,1.431c-0.239-0.169-0.493-0.275-0.839-0.239
			c-0.6,0.309-0.204,0.944-0.063,1.324c0.62,0.388,1.078,0.98,1.811,1.016l0.352-0.424c-0.077-1.114,0.445-1.987,0.479-3.108
			l1.016,0.529c0.937,4.327,2.897,8.268,5.379,11.97l1.325,1.317c-3.18,2.764-6.282,6.043-8.967,9.151v0.071
			c-0.036-0.141-0.148-0.699-0.557-0.494C66.836,96.737,69.028,97.116,68.619,95.623L68.619,95.623z M73.462,54.339
			c-0.979,0.557-1.748,1.537-2.333,2.447c-0.846,0.522-1.917,0.485-2.63,1.431c0,0.38,0.466,0.867-0.056,1.148
			c-0.804,0.761-2.481-0.211-2.862,1.255c-0.148,1.291-1.678,2.022-1.572,3.455c-0.838,0.556-0.698,1.641-0.591,2.508
			c0.451,0.564-0.204,1.572,0.591,1.988c-1.36-0.17-3.151-0.38-4.363,0.184c0.663-1.572,0.458-3.533,0.839-5.204
			c1.291-7.218,4.575-13.57,9.383-19.337c2.411,2.368,4.992,5.131,7.713,7.19C75.599,51.485,75.556,54.41,73.462,54.339
			L73.462,54.339z M95,91.957c-0.501,0.803-0.114,1.995-0.353,2.933c-4.645-0.804-8.833-2.723-12.562-5.788
			c2.094-2.278,4.956-4.497,6.45-6.944c0.218,1.114,1.537,1.635,2.446,2.156c1.861,0.832,4.118,2.122,6.232,1.227
			c-0.176,0.135-0.31,0.332-0.48,0.444c0.6,0.591-0.45,1.227,0.254,1.784c0.141,0.458-0.458,0.38-0.493,0.74
			c0.353,0.626-0.106,1.733,0.902,1.946c0.254,0.345,0,0.873-0.409,0.909C96.283,91.23,95.345,91.196,95,91.957L95,91.957z
			 M83.755,81.488c0.628-0.629,1.219-1.389,1.431-2.27l1.192,0.599c-1.086,0.063-1.678,1.15-2.517,1.748L83.755,81.488
			L83.755,81.488z M93.498,53.084c-0.212-0.493,0.388-1.015-0.176-1.332c-1.607,0.74-1.008,2.517-2.101,3.673
			c-0.177,0.909-1.361,0.452-1.911,0.937c-0.43-0.655-1.261-0.627-1.854-0.246c-0.832,0-0.973-1.706-1.854-0.832
			c-0.233,0.282-0.099,0.902-0.762,0.655c-0.141-0.231-0.388-0.274-0.557-0.408c-0.036-0.529,0.874-0.465,0.557-1.087
			c-0.628-1.12-1.995-0.944-2.827-1.783h-0.769c4.125-4.357,9.285-6.275,14.896-7.008c-0.071,2.51-0.268,5.337,0.529,7.6
			C95.796,52.175,94.577,53.536,93.498,53.084L93.498,53.084z M96.254,41.77c-1.819-0.409-3.532,0.43-5.273,0.599
			c-3.913,0.986-7.318,3.145-10.638,5.519c-0.176,0.275-0.353,0.515-0.529,0.762c-2.411-2.129-4.773-5.091-7.437-6.944
			c6.747-5.548,14.417-9.249,23.285-9.877l0.592-0.345C95.874,34.867,95.874,38.493,96.254,41.77L96.254,41.77z M58.461,17.075
			c11.06-7.952,23.518-12.74,37.546-13.296l-0.282,0.972l0.099,8.374l0.317,0.84c-13.612,0.627-25.463,5.724-35.657,15.009
			l-0.176,0.48c-2.34-2.51-4.956-5.407-7.705-7.424h-0.324C54.45,20.769,56.332,18.534,58.461,17.075L58.461,17.075z M32.497,62.306
			c1.784-14.417,7.917-27.05,17.864-38.118l0.239,0.944c2.383,2.341,4.752,4.816,7.022,6.944c-1.953,1.326-3.108,3.561-4.667,5.337
			c-6.26,8.861-9.813,18.773-10.483,29.905l0.254,1.368c-3.497-0.283-7.304-0.283-10.786,0
			C32.356,66.556,32.109,64.385,32.497,62.306L32.497,62.306z M40.562,103.089c-5.026-9.321-7.994-19.473-8.558-30.646l9.7,0.085
			l0.944-0.36c-0.14,0.529-0.07,1.192-0.105,1.96l-0.071-0.113c-0.275,0.219,0.211,0.317,0.176,0.529
			c0.177,3.694,0.84,7.191,1.679,10.617l0.494,0.754c-0.74-0.655-1.016-1.459-1.579-2.157c-0.797,0.133-1.671,0.309-2.263,0.846
			c0.38,1.001-0.627,0.683-1.086,0.965c-0.141-0.238-0.416-0.521-0.691-0.655c-0.74,0.035-1.508,0.099-1.818,0.831
			c0.105,0.523-0.494,0.769-0.698,1.185c-0.218,1.579-0.734,3.623,0.416,4.92c0.035,1.156,0.592,2.2,1.431,2.926
			c0.353,0.077,0.529-0.198,0.768-0.31c0.938,0.698,1.431,2.411,2.827,2.093c0.416-0.205,0.282-0.627,0.416-0.937
			c0.74,0.732,1.085,2.234,2.446,2.086c0.338,0.353,0.521,0.974,1.078,1.023c1.467-0.395,0.938,1.671,2.031,2.263
			c0.832,0.522,1.29,1.784,2.502,1.185l0.424-0.522c0.394,0.275,0.078,0.979,0.422,1.361c0.592,1.12,1.777,1.917,2.926,2.227
			c1.015,1.164,2.065,2.524,3.25,3.356l-0.846,0.359l-6.937,7.178C46.667,111.843,43.036,107.684,40.562,103.089L40.562,103.089z
			 M89.719,136.166c-14.022-1.911-26.302-7.98-37.194-17.406l7.19-7.225l0.105-0.424c9.947,9.609,21.988,14.416,35.594,15.353
			l1.079-0.274l-0.353,0.528v9.447l0.529,0.845C94.499,136.348,91.954,136.547,89.719,136.166L89.719,136.166z M98.172,96.638
			c-0.776,0.099-1.403,0.028-2.03-0.247c-0.317-0.036-0.204-0.382-0.317-0.592c1.023,0.035,1.509-1.184,2.594-1.008
			c0.628-0.564,0.733-1.51,1.593-1.826c-0.274-0.903,0.847-0.318,1.086-0.832c0.314-0.283,0.739-0.593,1.192-0.346
			c0.703,1.008,2.128,0.592,2.834,1.733c0.352,0.148,0.45-0.24,0.408-0.479v-0.431c1.129-0.099,1.68,1.502,2.863,0.431
			c0.282-0.246,0.225-0.776,0-1.016c-0.126-0.07-0.311-0.141-0.339-0.317c0.804-0.381,1.283,1.219,2.257,0.67
			c0.803-0.67,1.367-1.508,2.452-1.508l0.24,0.324c0.169,2.085-1.607,3.348-3.173,4.286c-1.015,0.423-2.861,0.282-2.792,1.918
			c-1.156,1.049-2.241-0.627-3.666-0.169c-0.662-0.352-0.042-1.326-0.943-1.502C100.964,96.355,99.215,94.961,98.172,96.638
			L98.172,96.638z M100.752,114.325c1.27,0.521,3.426-0.521,4.118,0.902c-0.382,0.812-1.017,1.58-0.763,2.517
			c0.522,1.298,1.283,3.003,2.933,3.108c0.408,0.551,0.972,0.692,1.536,0.904c-2.805,0.457-5.808,0.317-8.381,1.184
			c0.344-2.821,0-5.753,0-8.615l-0.53-0.768C100.16,113.628,100.4,114.051,100.752,114.325L100.752,114.325z M100.858,136.659
			l-0.662,0.417c0.246-3.562,0.246-7.404,0-10.949c1.755,0.593,3.601-0.084,5.448-0.084l5.344-0.937
			c2.637,0.528,4.526,4.814,7.459,2.206c1.014-1.22,2.791-1.12,3.426-2.807c1.705-0.619,2.129-2.36,3.342-3.475
			c1.157-3.284,4.85-3.772,7.12-6.034c1.649-1.474,3.807-2.692,4.794-4.618l0.155,0.839l7.374,7.015
			C132.194,129.539,117.686,135.925,100.858,136.659L100.858,136.659z M164.934,72.697c-0.664,16.328-6.74,30.426-17.413,42.609
			l-0.282,0.514c-2.199-2.405-5.132-5.541-7.783-7.634c1.606-1.086,2.834-2.968,4.116-4.505
			c6.627-9.102,10.505-19.367,11.069-30.984l-0.353-0.945l0.593,0.416l9.953-0.062l0.508-0.255L164.934,72.697L164.934,72.697z"/>
		<path fill="#FFFFFF" d="M129.403,17.907c-0.028,0.387,0.042,0.726,0.253,1.008c1.467,0.528,1.636,2.657,3.511,2.178
			c0.564-0.641-0.339-1.304-0.169-2.101c-0.24-0.733-0.875-1.051-1.565-1.262C130.7,18.435,130.065,17.102,129.403,17.907
			L129.403,17.907z"/>
		<path fill="#FFFFFF" d="M101.528,11.978c1.846,2.376,5.061,1.043,7.359,0.592c1.678,0.697,3.285-0.135,4.54-1.184v-0.255
			c-1.185-1.663-3.426-1.917-5.442-2.086l-5.033,2.171c-0.409-0.183-1.213-0.401-1.499,0.17
			C101.232,11.562,101.453,11.809,101.528,11.978L101.528,11.978z"/>
	</g>
</g>
</svg>
