<?xml version="1.0" encoding="utf-8"?>
<!-- Generator: Adobe Illustrator 17.0.0, SVG Export Plug-In . SVG Version: 6.00 Build 0)  -->
<!DOCTYPE svg PUBLIC "-//W3C//DTD SVG 1.1//EN" "http://www.w3.org/Graphics/SVG/1.1/DTD/svg11.dtd">
<svg version="1.1" id="Layer_1" xmlns="http://www.w3.org/2000/svg" xmlns:xlink="http://www.w3.org/1999/xlink" x="0px" y="0px"
	 width="270px" height="159.956px" viewBox="0 0 270 159.956" enable-background="new 0 0 270 159.956" xml:space="preserve">
<g>
	<rect x="0" y="0" fill="#2CAAE1" width="270" height="159.956"/>
	<g>
		<g>
			<g>
				<g>
					<g>
						<path fill-rule="evenodd" clip-rule="evenodd" fill="#FFFFFF" d="M214.083,55.475c0.287,0.362,0.529,0.728,0.529,1.183
							c-0.287,0.135-0.675,0.183-0.867,0.41c1.3-0.183,1.592,1.365,3.034,0.773c0.1,0.227,0.292,0.409,0.58,0.32l0.145-0.411
							c0.577-0.183,0.434,0.773,1.059,0.592c0.292,0.272,0.097,0.728,0.292,1.045c0,0.366,0.192,0.686,0.334,1.004
							c0.149-0.183,0.241-0.457,0.629-0.365c0.292,0.273,0.479,0.548,0.53,0.864c-0.096,0.593-0.238,1.138,0.387,1.459v0.179
							c0.43,0.184,1.346-0.179,1.346,0.547c-0.046,0.274,0.292,0.047,0.388,0.183c0.287-0.092,0.625-0.044,0.963-0.044
							c0.242,0.545-0.338,0.954-0.483,1.455c0.242,0.275,0.145,0.728,0.096,1.046l-0.142,0.091c0.384,0.093,0.918-0.045,1.3,0.183
							l0.675,0.274c0.337-0.181,0.721-0.23,1.109-0.181c0.338,0.226-0.099,0.635,0.191,0.817c0.339,0,0.675,0.046,0.723,0.364
							l0.049,0.091c0.291-0.455,1.013-0.135,1.351-0.499c0.528,0,0.625,0.591,0.867,0.91c0.096,0.819-0.867,1.183-0.576,2.002
							c-0.196,0.41-0.629,0.73-0.92,1.093c0.099,0.044,0.049,0.181,0.049,0.273c-0.337,0.181-0.049,0.728-0.479,0.773
							c-0.053,0.365-0.724,0.228-0.483,0.59c0.43,0.549-0.241,0.913-0.241,1.414c-0.242,0.272-0.769-0.273-0.769,0.272
							c-0.341,0.09-0.628-0.272-0.87,0.046c-0.096,0.364,0.242,0.501,0.192,0.863c0.529-0.044,0.678,0.455,0.867,0.774l0.53,0.546
							c-0.53,0.41-1.205-0.044-1.83,0.184c-0.142-0.092,0-0.274-0.142-0.363c-0.196-0.183-0.484-0.183-0.776-0.229
							c0.05,0.229-0.383,0.318-0.192,0.592c0,0.09,0.096,0.319-0.096,0.319c-0.433,0.135-0.388-0.365-0.771-0.183
							c-0.48,0.183-0.096,0.91-0.772,0.819c0.097,0.638-1.059,1.049-0.287,1.594c0.145,0.135,0.046,0.317,0.092,0.501
							c-0.48,0.41-1.346,0.272-1.876,0.09c-0.434-0.09-0.145-0.636-0.337-0.909c-0.143-0.274-0.626-0.457-0.626-0.821
							c-0.292-0.137-0.579-0.227-0.774-0.501c-0.769,0.731-1.639,1.413-2.694,1.458c-0.483,0.226-0.725,1.182-1.496,0.773
							c-0.291,0.499-1.158,0-1.205,0.684c-0.341,0.136-0.195,0.59-0.387,0.817c-0.096,0.501,0,0.956,0.434,1.276
							c0.195,0.408-0.388,0.408-0.147,0.773c0.05,0.136,0,0.319-0.096,0.364c-0.146,0.091-0.192,0.183-0.146,0.32
							c-0.143,0-0.189,0.09-0.287,0.179c-0.147,0.274-0.577,0.41-0.867,0.594c-0.288,0.089-0.484-0.139-0.675-0.32
							c-0.046,0.273-0.288,0.456-0.579,0.456c-0.433,0-0.337-0.364-0.674-0.547c0.145-0.455-0.289-0.683-0.145-1.093
							c0.339-0.272,0.918-0.454,0.773-1c-0.387-0.455-0.242-1.137-0.627-1.64c-0.24-0.228-0.625-0.544-0.483-1.044
							c0.338-0.41,0-0.866-0.194-1.276c-0.093-0.364-0.287-0.684-0.287-1.092c-0.577-0.32-0.627-1.229-1.446-1.321
							c-0.577,0-0.675-0.73-1.252-0.682c-0.048-0.093-0.193-0.181-0.289-0.275c-0.434,0.275-0.963-0.089-1.493,0.048
							c-0.337-0.592,0.29-1.368-0.625-1.731V72.86c0.094,0.044,0.143-0.044,0.19-0.09c0.05-0.409-0.673-0.455-0.385-0.91
							c-0.143-0.137-0.336-0.183-0.24-0.457c-0.386-0.819-1.592-0.729-1.832-1.547c0.192-0.181,0.192-0.364,0.29-0.545
							c-0.192-0.318-0.24-0.638-0.192-1c0.192-0.048,0.287-0.275,0.386-0.455c-0.244-0.183-0.532-0.41-0.771-0.319
							c-0.483-0.091-0.821-0.455-1.253-0.682c-0.096-0.09-0.048-0.273-0.048-0.41c0.576-0.181-0.098-1,0.625-0.909
							c0.193-0.229,0.579-0.318,0.868-0.501c0.287-0.045,0.531,0.046,0.819,0.137c0.239,0.319,0.673,0.181,0.914,0.453
							c0.242-0.045,0.532-0.18,0.819-0.045c0-0.455,0.195-0.726,0.532-1.048c0.046-0.179,0.338-0.316,0.578-0.406
							c0.435,0.09,0.965,0.09,1.302-0.228c0.192,0.135,0.384-0.137,0.625-0.137c0.292-0.046,0.532,0.044,0.725,0.181
							c0.048-0.547,0.963-0.093,1.155-0.727c0.194-0.412-0.577-0.593-0.529-0.958c-0.146-0.41,0.192-0.638,0.338-0.911
							c0.192-0.09,0.386-0.181,0.625-0.135c0.629-0.227,0.142-1.457,1.108-1.002c0,0.137-0.046,0.274,0.05,0.319
							c0.338,0,0.387-0.41,0.626-0.547c0.096-0.362-0.142-0.817,0.192-1.093c0.146-0.044,0.291-0.091,0.387-0.228
							c0-0.271-0.146-0.454-0.387-0.638c-0.096,0.139-0.288,0.046-0.43,0.094c0-0.322-0.196-0.549-0.242-0.821
							c-0.146-0.09-0.242-0.227-0.195-0.41c0.242-0.227,0-0.817,0.579-0.682c0.192-0.181,0.579-0.045,0.771-0.366
							c0.579-0.316,1.3-0.316,1.737-0.91c0.192,0.047,0.384-0.135,0.575,0C213.553,55.294,214.034,55.155,214.083,55.475"/>
					</g>
				</g>
				<g>
					<g>
						<path fill="#FFFFFF" d="M94.063,57.685v15.146c0,2.719,0.206,6.127,5.404,6.127c0.86,0,3.442-0.034,4.819-2.169
							c0.517-0.757,0.792-1.721,0.792-4.234V57.685h5.198V73.21c0,7.401-5.886,9.776-10.913,9.776c-2.479,0-7.022-0.551-9.363-4.303
							c-1.205-1.893-1.273-3.821-1.273-6.127V57.685H94.063z"/>
						<path fill="#FFFFFF" d="M117.573,57.616h7.711l9.329,19.587V57.616h4.957v24.888h-7.332l-9.639-20.654v20.654h-5.026V57.616z"
							/>
						<path fill="#FFFFFF" d="M146.247,57.685h5.335v10.706l8.331-10.775h6.23l-9.122,11.153l9.914,13.735h-6.644l-8.709-12.668
							v12.668h-5.335V57.685z"/>
						<path fill="#FFFFFF" d="M176.849,61.747h-7.401v-4.131h20.172v4.131h-7.401v20.758h-5.37V61.747z"/>
					</g>
				</g>
				<g>
					<path fill="#FFFFFF" d="M70.438,79.257c-1.077,0.288-2.227,0.382-3.273,0.738c1.772-1.519,1.671-3.871,2.854-5.661
						c0.377-0.507,0.688-1.038,1.127-1.519c-0.72,1.443-0.407,3.315-1.234,4.715c-0.319,0.556-0.773,1.096-1.276,1.533
						c0.164-0.006,0.308-0.149,0.453-0.244c1.342-1.34,3.096-1.714,4.547-2.802c0.581-0.464,1.115-1.07,1.37-1.728
						C74.73,76.512,72.521,78.595,70.438,79.257L70.438,79.257z"/>
					<path fill="#FFFFFF" d="M75.274,70.261c-0.657,0.934-1.451,1.803-2.058,2.753c0.068-0.751,0.157-1.676-0.136-2.389
						c-0.508-1.533-0.953-3.09-1.097-4.774l0.02-0.643c0.382,1.719,2.07,2.901,1.964,4.829c0.038,0.468-0.106,0.863-0.195,1.275
						l0.03,0.03l0.076-0.086c0.25-0.945,0.377-1.94,0.766-2.822c0.554-1.27,1.244-2.552,0.963-4.085
						C76.449,66.157,76.194,68.573,75.274,70.261L75.274,70.261z"/>
					<path fill="#FFFFFF" d="M74.238,60.522c1.107,1.5,1.35,3.892,0.543,5.613c-0.301,0.729-0.513,1.506-0.632,2.314
						c-0.056-0.139-0.068-0.326-0.119-0.482c-0.44-1.685-2.035-2.885-2.689-4.474c-0.207-0.519-0.384-1.056-0.483-1.62
						c0.7,1.296,2.426,1.964,2.897,3.391c0.192,0.361,0.182,0.813,0.301,1.201c0.025,0,0.051-0.019,0.051-0.044
						c-0.207-1.47-0.144-3.009,0.056-4.461c-0.012-0.786-0.088-1.549-0.526-2.157C73.916,59.965,74.043,60.278,74.238,60.522
						L74.238,60.522z"/>
					<path fill="#FFFFFF" d="M73.456,60.234c0.291,1.314-0.134,2.596,0.134,3.923l-0.01,0.011c-0.715-1.407-2.234-2.07-3.278-3.196
						c-0.607-0.668-0.87-1.483-1.021-2.344c0.599,1.443,2.214,1.762,3.142,2.978c0.311,0.28,0.412,0.668,0.612,0.987l0.033-0.032
						c-0.533-1.139-0.713-2.42-1.084-3.635c-0.187-0.526-0.556-1.043-1.052-1.375C72.147,57.799,73.204,59.071,73.456,60.234
						L73.456,60.234z"/>
					<path fill="#FFFFFF" d="M70.201,57.218c0.918,0.82,1.332,1.883,1.6,2.984l0.152,0.35c-1.332-0.958-2.541-2.244-3.39-3.603
						l-1.039-1.05C68.436,56.286,69.42,56.517,70.201,57.218L70.201,57.218z"/>
					<path fill="#FFFFFF" d="M49.18,56.073c-0.92,0.806-1.558,1.826-2.241,2.778c-0.612,0.757-1.394,1.257-2.088,1.908
						c0.374-0.776,0.388-1.704,0.919-2.416C46.526,57.025,47.928,56.561,49.18,56.073L49.18,56.073z"/>
					<path fill="#FFFFFF" d="M44.149,58.882c0.447-0.556,1.015-0.943,1.653-1.106c-1.24,0.852-1.159,2.377-1.552,3.646
						c-0.125,0.469-0.343,0.901-0.451,1.383l0.032,0.025c0.206-0.545,0.569-1.058,1.021-1.501c0.881-0.813,2.183-1.319,2.614-2.521
						c-0.019,1.671-1.413,2.984-2.746,3.923c-0.55,0.483-1.081,1.032-1.383,1.652c-0.03-0.421,0.062-0.844,0.032-1.296
						C43.224,61.628,43.118,59.963,44.149,58.882L44.149,58.882z"/>
					<path fill="#FFFFFF" d="M41.641,63.868c-0.038-1.477,0.575-2.684,1.44-3.785c0.025-0.013,0.043-0.038,0.076-0.032
						c-0.952,1.446-0.164,3.267-0.208,4.911l-0.125,1.684c0.019,0.011,0.019,0.062,0.063,0.043c0.056-0.187,0.068-0.388,0.106-0.581
						c0.224-1.358,1.403-2.32,2.433-3.26c0.22-0.245,0.415-0.494,0.527-0.782c-0.084,0.676-0.296,1.357-0.576,1.983
						c-0.801,1.563-2.283,2.846-2.553,4.636C42.692,66.97,41.524,65.687,41.641,63.868L41.641,63.868z"/>
					<path fill="#FFFFFF" d="M40.921,65.97c0.106-0.463,0.188-0.94,0.389-1.365c-0.382,1.954,0.933,3.362,1.364,5.055
						c0.181,0.633,0.225,1.315,0.483,1.908c0.024,0.013,0.044-0.012,0.059-0.032c-0.642-1.799,0.284-3.47,1.216-4.88
						c0.226-0.382,0.356-0.807,0.469-1.245c0.1,0.814-0.106,1.752-0.225,2.597c-0.226,1.076-0.564,2.096-0.858,3.139
						c-0.193,0.652-0.143,1.388-0.043,2.072l-0.094-0.076c-0.683-1.258-2.034-2.24-2.435-3.615
						C40.916,68.435,40.696,67.165,40.921,65.97L40.921,65.97z"/>
					<path fill="#FFFFFF" d="M40.859,69.786c0.15,2.071,2.377,3.166,3.41,4.88c0.244,0.35,0.456,0.739,0.782,1.032
						c-0.051-0.22-0.257-0.406-0.332-0.632c-0.361-0.719-0.493-1.576-0.406-2.446c0.1-1.058,0.543-2.04,0.374-3.152
						c0.908,1.956,0.632,4.397,1.139,6.516c0.133,0.464,0.401,0.877,0.577,1.321c-1.863-1.27-4.405-2.477-5.231-4.804
						C40.822,71.7,40.783,70.707,40.859,69.786L40.859,69.786z"/>
					<path fill="#FFFFFF" d="M41.973,74.542c1.039,2.351,3.641,2.545,5.386,3.977c0.321,0.283,0.657,0.526,1.02,0.695l0.019-0.019
						c-0.401-0.363-0.865-0.775-1.145-1.245c-1.021-1.419-0.662-3.409-1.427-4.936c0.695,0.833,1.327,1.696,1.747,2.64
						c0.624,1.539,0.863,3.28,2.308,4.443c-1.563-0.514-3.395-0.37-4.775-1.333C43.599,77.838,42.254,76.268,41.973,74.542
						L41.973,74.542z"/>
					<path fill="#FFFFFF" d="M44.643,78.927c1.666,1.894,4.388,1.263,6.607,1.758c0.313,0.043,0.6,0.168,0.933,0.117
						c-0.264-0.168-0.632-0.149-0.92-0.301c-1.74-0.612-1.996-2.495-2.94-3.765c1.207,0.801,2.221,1.882,3.334,2.929
						c0.8,0.701,1.763,1.025,2.778,1.231c-0.244,0.088-0.564,0.065-0.825,0.133c-1.823,0.449-3.848,1.182-5.781,0.526
						C46.572,81.159,45.275,80.165,44.643,78.927L44.643,78.927z"/>
					<path fill="#FFFFFF" d="M67.256,83.343c-1.878,0.702-3.837-0.032-5.303-1.144c-0.594-0.377-1.117-0.92-1.886-0.872
						c-0.278-0.005-0.546,0.008-0.783,0.076c1.426,0.664,2.748,1.577,3.958,2.746c-0.205,0.233-0.468,0.451-0.718,0.651
						c-1.165-1.256-2.457-2.465-3.903-3.171c-0.283,0.037-0.552,0.206-0.808,0.344c-1.177,0.745-2.341,1.701-3.215,2.873
						l-0.752-0.621c1.201-1.213,2.528-2.159,3.98-2.833c-1.427-0.453-2.358,0.743-3.441,1.351c-1.263,0.882-3.077,1.295-4.603,0.687
						c-0.82-0.311-1.615-0.77-2.209-1.514c1.201,0.827,2.989,0.914,4.354,0.377c1.831-0.795,3.735-1.802,5.944-1.321
						c0.344,0.006,0.68,0.35,1.005,0.057c1.642-0.426,3.5-0.133,4.913,0.618l1.456,0.583c1.355,0.502,3.104,0.363,4.264-0.462
						C68.912,82.51,68.098,83.042,67.256,83.343L67.256,83.343z"/>
					<path fill="#FFFFFF" d="M69.268,81.403c-2.108,0.796-4.229-0.181-6.248-0.507l-0.389-0.049v-0.013
						c0.966-0.218,1.903-0.507,2.672-1.201c1.132-1.088,2.141-2.208,3.397-3.066c-0.933,1.196-1.031,2.897-2.571,3.666
						c-0.382,0.249-0.862,0.293-1.256,0.481c0.561,0.013,1.074-0.188,1.63-0.244c2.065-0.325,4.428,0.008,5.877-1.752
						C71.841,79.946,70.494,80.972,69.268,81.403L69.268,81.403z"/>
					<path fill="#FFFFFF" d="M73.097,75.473c-0.831,0.545-1.676,1.05-2.477,1.669v-0.076c1.226-2.037,0.627-4.834,1.383-7.075
						l0.281-0.751c-0.157,1.396,0.45,2.578,0.407,3.98c-0.043,0.845-0.319,1.596-0.763,2.271h0.076
						c0.599-0.787,1.069-1.626,1.77-2.377c1.089-1.05,2.196-2.127,2.34-3.584C76.482,71.963,75.117,74.095,73.097,75.473
						L73.097,75.473z"/>
					<path fill="#FFFFFF" d="M69.763,61.992c-2.053-4.367-6.557-7.137-11.275-7.146c-2.064,0.039-3.96,0.496-5.692,1.352
						c-3.085,1.471-5.605,4.666-6.444,7.833c-1.381,5.33,0.488,10.729,5.062,13.862c3.29,2.36,8.535,2.811,12.228,1.002
						c3.273-1.378,6.092-4.761,6.949-8.109C71.434,67.953,71.063,64.499,69.763,61.992L69.763,61.992z M70.352,66.407
						c0.03,0.214-0.02,0.47,0.098,0.645l-1.802,0.03c-0.043,0.033-0.094,0.057-0.149,0.057l0.051-0.075
						c-0.038-1.413-0.407-2.683-0.95-3.885c-0.021-0.538-0.541-0.901-0.764-1.369c-0.402-0.277-0.521-0.765-0.978-1.008
						c-0.086-0.093-0.124-0.25-0.255-0.281l0.212-0.044c0.432-0.443,0.903-0.875,1.244-1.338
						C68.927,61.241,70.115,63.625,70.352,66.407L70.352,66.407z M65.259,73.177c-0.157-0.149-0.162-0.444-0.437-0.437
						c-0.094-0.013-0.134,0.076-0.134,0.15c-0.005,0.043,0.013,0.093-0.018,0.124l-0.569-0.499c0.268-0.139,0.468-0.501,0.675-0.763
						c0.526-0.733,0.832-1.552,1.097-2.39c0.086,0.069,0.2,0.076,0.286,0.019c0.084-0.068,0.101-0.201,0.046-0.288l-0.21-0.225
						c0.028-0.375,0.129-0.744,0.088-1.127l0.139,0.044c0.581-0.005,1.176,0.031,1.739-0.024l-0.088,0.1
						c-0.142,2.258-0.93,4.297-2.507,5.962C65.434,73.602,65.226,73.416,65.259,73.177L65.259,73.177z M63.788,74.979
						c-0.326-0.3,0.202-0.551,0.301-0.828c-0.056-0.292-0.381-0.455-0.632-0.537c-0.119-0.067-0.079-0.219-0.088-0.317
						c0.114-0.115,0.227-0.207,0.283-0.358l0.043,0.119l0.768,0.795c0,0.182,0.033,0.337,0.207,0.419
						c0.086,0.037,0.182-0.038,0.258-0.014h-0.043c-0.334,0.364-0.741,0.638-1.115,0.934l-0.088,0.117
						C63.641,75.186,63.894,75.128,63.788,74.979L63.788,74.979z M60.292,65.283c-0.101,0.038-0.207,0.106-0.318,0.055
						c-0.109-0.112-0.245-0.263-0.419-0.282c-0.119,0.032-0.202,0.182-0.344,0.101c0.225-0.245,0.624-0.289,0.794-0.627
						c0.048-0.162,0.093-0.331,0.076-0.499c-0.063-0.076-0.157-0.144-0.24-0.076c-0.124,0.207-0.409,0.25-0.543,0.47l-0.45-0.152
						c-0.076-0.411,0.029-0.938-0.09-1.294c0.239,0.087,0.502,0.094,0.752,0.15c0.639,0.163,1.221,0.463,1.784,0.813
						c-0.131,0.044-0.27,0.201-0.377,0.301c-0.005,0.113,0.119,0.081,0.169,0.149l0.119-0.043
						C61.012,64.838,60.36,64.762,60.292,65.283L60.292,65.283z M60.815,70.463c-0.01,0.225-0.331,0.218-0.48,0.374
						c-0.086-0.032-0.02-0.119,0-0.168C60.484,70.55,60.598,70.431,60.815,70.463L60.815,70.463z M64.357,64.469
						c0.207,0.044,0.331,0.288,0.541,0.332c0.184,0.287,0.255,0.618,0.346,0.944c-0.167,0.188-0.18,0.607-0.544,0.537
						c-0.086-0.2,0.164-0.317,0.106-0.505c0.066-0.051,0.164-0.075,0.184-0.169c-0.015-0.188-0.253-0.15-0.291-0.344
						c-0.073-0.106-0.199-0.095-0.298-0.131c-0.24-0.113-0.463,0.48-0.526,0.011c0.076-0.062,0.119-0.155,0.063-0.238
						c-0.207-0.113-0.225-0.399-0.452-0.513c-0.306,0.008-0.586-0.13-0.887-0.062c-0.192-0.044-0.42-0.174-0.569,0.032
						c-0.013,0.157-0.096,0.287-0.119,0.439c-0.071-0.039-0.132-0.108-0.169-0.182c0.551-0.614,1.18-1.233,1.757-1.833l0.033-0.076
						c0.288,0.356,0.625,0.713,0.837,1.113C64.42,64.062,63.957,64.312,64.357,64.469L64.357,64.469z M65.451,67.784
						c-0.106,0.339-0.094,0.727-0.18,1.071c-0.018,0.057-0.018,0.124-0.058,0.182c-0.106-0.212-0.192-0.495-0.437-0.621
						c-0.207-0.111-0.076-0.393-0.268-0.526l-0.195-0.193C64.645,67.841,65.077,67.804,65.451,67.784L65.451,67.784z M62.843,62.473
						c-0.329,0.375-0.756,0.713-1.037,1.107l-0.045-0.132c-0.819-0.668-1.769-1.001-2.81-1.144l-0.162,0.029l0.012-1.694
						l-0.063-0.139c0.691,0.107,1.381,0.201,2.016,0.426c0.812,0.288,1.562,0.727,2.252,1.301l0.151,0.063L62.843,62.473
						L62.843,62.473z M61.129,71.739c0.551,0.05,1.069,0.168,1.564,0.355c0.124,0,0.263-0.011,0.344-0.105
						c-0.03-0.207,0.22-0.3,0.195-0.507c0.106-0.174,0.03-0.42,0.18-0.57c0.02-0.219-0.01-0.463-0.149-0.631
						c-0.136-0.088-0.26,0.024-0.394,0.043c-0.149,0.113-0.094,0.445-0.354,0.375c-0.063,0.087-0.184,0.087-0.271,0.063
						c-0.02-0.033-0.063-0.038-0.05-0.075c0.187-0.096,0.521-0.032,0.543-0.332c0.139-0.12,0.351-0.068,0.483-0.212
						c0.094-0.152,0.137-0.282,0.268-0.421c0.013-0.062,0.038-0.124,0.033-0.192c0.038,0.086,0.038,0.207,0.149,0.255
						c0.144,0.044,0.207-0.075,0.271-0.169c-0.007-0.049,0.03-0.124,0.086-0.075c0.157,0.125,0.377,0.018,0.558,0.033
						c0.154-0.051,0.324-0.082,0.493-0.088c-0.149,0.689-0.5,1.332-0.915,1.934c-0.154,0.192-0.293,0.399-0.468,0.588
						c-0.053-0.144-0.051-0.339-0.175-0.47l-0.076,0.019c-0.101,0.2-0.301,0.369-0.275,0.6c-0.149,0.239-0.526,0.038-0.751,0.163
						c-0.268,0.082-0.412-0.181-0.627-0.238c-0.235-0.1-0.511-0.106-0.736-0.225C61.048,71.802,61.081,71.756,61.129,71.739
						L61.129,71.739z M59.958,55.611c2.505,0.344,4.75,1.338,6.64,3.141l-0.215,0.086c-0.344,0.37-0.743,0.671-0.945,1.097
						c-0.023-0.119-0.2-0.201-0.255-0.313c-0.038-0.344-0.367-0.67-0.662-0.845c-0.245-0.044-0.301-0.412-0.601-0.3
						c-0.25-0.212-0.564-0.056-0.806,0.062v0.032c-1.188-0.676-2.515-1.095-3.948-1.201c-0.071,0-0.106,0.055-0.181,0.043
						c0.075-0.049,0.036-0.201,0.031-0.286c-0.04-0.064-0.113-0.139-0.2-0.09c-0.031,0.044-0.058,0.095-0.058,0.15
						c0.039-0.556,0.058-1.232-0.018-1.726C59.119,55.579,59.559,55.541,59.958,55.611L59.958,55.611z M59.478,58.119
						c1.097,0.131,2.065,0.431,3.036,0.87c0.142,0.218,0.425,0.325,0.46,0.6c-0.142,0.38,0.508,0.375,0.215,0.765
						c-0.02,0.124,0.086,0.192,0.129,0.287c0.038,0.106-0.018,0.268,0.109,0.331c0.225,0.049,0.318-0.25,0.543-0.169
						c0.293,0.212,0.357,0.562,0.357,0.888c0.038,0.206,0.212,0.345,0.394,0.42c0.369-0.112,0.192,0.301,0.45,0.407
						c0.288,0.035,0.432,0.406,0.751,0.375c0.283,0.212,0.437,0.525,0.69,0.763c-0.008,0.056,0.023,0.106,0.073,0.125
						c0.152,0.037,0.245-0.07,0.374-0.075c0.483,0.987,0.721,2.081,0.814,3.239l0.058,0.119c-0.607-0.006-1.213,0.007-1.835,0.044
						c-0.018-0.358,0.008-0.732-0.192-1.02c0.101-0.188,0.119-0.432,0.106-0.645c-0.038-0.094-0.121-0.011-0.162,0
						c-0.2,0.195-0.228,0.463-0.331,0.69c-0.172,0.243-0.197,0.61-0.096,0.887l0.076,0.076l-0.7-0.015
						c0.167-0.106-0.144-0.311,0.025-0.481l0.318-0.062c0.099-0.231,0.349-0.401,0.344-0.675c0.136-0.168,0.263-0.387,0.164-0.614
						c-0.152-0.344,0.255-0.694-0.058-1.02c0.03-0.092-0.038-0.23-0.152-0.225c-0.099-0.03-0.212,0-0.212-0.137
						c0.058-0.087,0.202-0.176,0.169-0.312c-0.076-0.095-0.195-0.013-0.288-0.019c-0.025-0.152,0.258-0.313,0.013-0.451
						c-0.17-0.03-0.263,0.182-0.432,0.107c-0.073-0.063-0.129-0.169-0.061-0.258l-0.377-0.463c-0.038-0.044-0.144,0.024-0.149-0.062
						c0.025-0.369-0.425-0.576-0.45-0.944c-0.139-0.126-0.028-0.358-0.207-0.464c-0.101-0.076-0.212-0.162-0.349-0.106
						c-0.157-0.226-0.339-0.445-0.554-0.645c-0.061-0.019-0.106,0.019-0.134,0.057c0.028,0.175,0.235,0.274,0.223,0.468
						c-0.03-0.006-0.056,0-0.073,0.025c0.025,0.182,0.17,0.326,0.286,0.451c-0.981-0.757-2.139-1.152-3.365-1.351
						c-0.238-0.006-0.483-0.106-0.722-0.025c0.058-0.543,0.02-1.164,0.033-1.747l-0.064-0.119
						C58.959,58.137,59.21,58.081,59.478,58.119L59.478,58.119z M58.427,65.326l0.105,0.057c-0.13,0.006-0.279-0.076-0.392,0.018
						c-0.077,0.057-0.027,0.157,0,0.225c0.224,0.089,0.276,0.458,0.574,0.314c0.126,0.027,0.282,0.051,0.325,0.196
						c0.182,0.067,0.207,0.387,0.453,0.318c-0.013,0.117-0.051,0.325,0.094,0.417c-0.038,0.106-0.175,0.152-0.17,0.289
						c-0.03,0.037-0.063,0.1-0.023,0.15c0.23,0.024,0.218,0.287,0.324,0.43c-0.051,0.183,0.012,0.369,0.169,0.47
						c-0.025,0.214-0.119,0.394-0.212,0.583c-0.243,0.119-0.644-0.182-0.733,0.255c-0.138,0.152-0.02,0.483-0.289,0.494
						c-0.511,0.039-0.987-0.073-1.381-0.375c0.256-0.13,0.695,0.051,0.781-0.331c0.068-0.056,0.095-0.157,0.063-0.237
						c0.119-0.119,0.163-0.276,0.225-0.418c-0.092-0.095-0.051-0.145-0.029-0.257c-0.259-0.263-0.607-0.125-0.933-0.119
						c-0.196,0.111-0.009,0.325-0.139,0.461c-0.25,0.032-0.256,0.276-0.432,0.42c-0.1-0.044-0.174-0.181-0.168-0.28h0.033
						c-0.014,0.049,0.018,0.093,0.062,0.106c0.236,0.037,0.162-0.233,0.236-0.351c0.039-0.149,0.388-0.355,0.108-0.463
						c-0.014-0.062,0.037-0.144-0.044-0.182c-0.087,0.038-0.232,0.038-0.244,0.17c0.044,0.114,0,0.226-0.1,0.301h-0.051
						c0.019-0.075-0.038-0.125-0.088-0.152c-0.141,0.008-0.262,0.113-0.406,0.077c-0.201,0.043-0.426,0.081-0.632,0.087
						c-0.024-0.119,0.163-0.082,0.201-0.193c-0.033-0.188,0.092-0.301,0.174-0.439c0.051-0.049,0.144-0.032,0.202-0.012
						c0.048,0.049,0.098,0.093,0.173,0.076l0.063-0.107c0.188,0.114,0.082,0.651,0.449,0.418c0.058-0.23,0.008-0.505,0.108-0.718
						c-0.082-0.202,0.133-0.282,0.195-0.421c0.193,0.02,0.174-0.199,0.257-0.3c0.293-0.087,0.607-0.157,0.794-0.469
						c-0.076-0.157-0.025-0.382-0.149-0.507C58.107,65.283,58.325,65.214,58.427,65.326L58.427,65.326z M58.14,76.931l-0.176-0.12
						c-2.328-0.125-4.319-1.077-6.056-2.596c0.281-0.03,0.387,0.344,0.694,0.25c0.337-0.038,0.6-0.306,0.958-0.25
						c0.174,0.006,0.394,0,0.501-0.169c0.056-0.187-0.145-0.282-0.181-0.432c1.182,0.883,2.514,1.439,4.034,1.516l0.149-0.064v1.652
						L58.14,76.931L58.14,76.931z M51.582,67.91l-0.095-0.15c0.19,0.137,0.383,0.095,0.603,0.055
						c-0.307,0.1-0.195,0.477-0.312,0.708c-0.021,0.112,0.149,0.144,0.13,0.256c-0.152,0.075-0.171,0.238-0.238,0.355
						C51.756,68.717,51.594,68.322,51.582,67.91L51.582,67.91z M49.687,70.069c-0.169,0.018-0.125,0.206-0.196,0.298
						c0.015-0.437-0.179-0.862-0.238-1.307l-0.136-1.15l-0.076-0.106c0.551,0.081,1.158,0.029,1.739,0.044l0.138-0.064
						c-0.051,0.276-0.061,0.676,0.138,0.92c-0.068-0.075-0.168-0.295-0.331-0.288c-0.32,0.019-0.344,0.439-0.664,0.451
						c-0.263,0.219-0.3,0.526-0.356,0.827C49.817,69.811,49.618,69.93,49.687,70.069L49.687,70.069z M50.964,67.172l-0.163-0.063
						l-1.715,0.03c0.157-1.913,0.684-3.671,1.79-5.192l0.676-0.857l0.013-0.119c0.401,0.47,0.844,0.906,1.319,1.319
						c-1.234,1.327-1.858,2.917-1.996,4.699C50.914,67.052,50.894,67.127,50.964,67.172L50.964,67.172z M58.063,59.877
						c-0.323-0.069-0.656,0.042-0.987,0.075c-1.397,0.287-2.691,0.882-3.755,1.902l-0.043-0.119c-0.418-0.388-0.8-0.876-1.263-1.172
						c0.399-0.236,0.756-0.585,1.144-0.856c1.451-0.977,3.076-1.527,4.891-1.634C57.988,58.663,58.039,59.283,58.063,59.877
						L58.063,59.877z M55.261,69.317c0.005,0.063,0.081,0.12,0.15,0.076c0.068-0.095-0.15-0.258,0.011-0.313
						c0.101,0.112,0.051,0.301,0.107,0.431c0.051,0.071,0.068,0.15,0.057,0.245c-0.171,0.206-0.407,0.388-0.526,0.612
						c-0.113-0.28-0.364-0.505-0.477-0.792c-0.179-0.327-0.274-0.695-0.45-1.02c0.149,0.187,0.551-0.025,0.551,0.331
						c0.024,0.019,0.063,0.011,0.092,0.011c0.051-0.055,0.057-0.062,0.121-0.03c0.03,0.062,0.179,0.093,0.062,0.169
						C55.004,69.166,55.117,69.292,55.261,69.317L55.261,69.317z M57.119,74.197l0.3,0.138c-1.087-0.268-2.256-0.644-3.196-1.427
						c-0.162-0.092-0.268-0.306-0.464-0.319c0.44-0.355,0.878-0.827,1.246-1.277c0.163,0.299,0.513,0.463,0.782,0.664
						c0.473,0.219,0.966,0.619,1.519,0.505c-0.172,0.065-0.33,0.159-0.468,0.308c-0.077,0.168-0.051,0.418-0.277,0.493
						C56.575,73.641,56.894,73.94,57.119,74.197L57.119,74.197z M53.129,71.989l-0.063-0.388c-0.356-0.32-0.245-0.871-0.301-1.277
						c-0.25-0.2-0.051-0.524-0.224-0.749c0.004-0.364-0.566-0.489-0.389-0.89c-0.07-0.1-0.156-0.231-0.075-0.356
						c0.111-0.131,0.355,0.014,0.431-0.181l0.049-0.333c0.133-0.076,0.318,0.095,0.388-0.088c0.126-0.312-0.461-0.694,0.044-0.857
						c0.169-0.018,0.402-0.056,0.469,0.152c0.039,0.237,0.101,0.493,0.011,0.738c0.164,0.062,0.014,0.207,0.014,0.312
						c-0.099,0.043-0.193,0.144-0.311,0.107c-0.051-0.082-0.139-0.226-0.259-0.212c-0.094,0.13,0.039,0.268,0.019,0.417
						c-0.03,0.088-0.006,0.188-0.062,0.256c-0.043-0.03-0.088-0.049-0.15-0.043c-0.108,0.055-0.037,0.169-0.011,0.237
						c0.111,0.07,0.193,0.176,0.325,0.182l0.063-0.076c-0.014-0.2,0.08-0.356,0.086-0.557l0.182,0.095
						c0.168,0.776,0.519,1.482,0.964,2.146l0.238,0.236c-0.57,0.495-1.126,1.083-1.608,1.641v0.013
						c-0.006-0.025-0.027-0.125-0.1-0.088C52.809,72.188,53.202,72.256,53.129,71.989L53.129,71.989z M53.997,64.588
						c-0.176,0.1-0.313,0.276-0.418,0.439c-0.152,0.093-0.344,0.087-0.471,0.257c0,0.068,0.083,0.155-0.01,0.206
						c-0.144,0.136-0.445-0.038-0.513,0.225c-0.027,0.231-0.301,0.363-0.282,0.619c-0.15,0.1-0.125,0.294-0.106,0.45
						c0.081,0.101-0.037,0.282,0.106,0.356c-0.244-0.03-0.565-0.068-0.782,0.033c0.119-0.282,0.082-0.633,0.15-0.933
						c0.231-1.294,0.82-2.433,1.682-3.467c0.432,0.425,0.895,0.92,1.383,1.289C54.38,64.076,54.372,64.6,53.997,64.588
						L53.997,64.588z M57.858,71.332c-0.09,0.144-0.02,0.358-0.063,0.526c-0.833-0.144-1.584-0.488-2.252-1.038
						c0.375-0.408,0.888-0.806,1.156-1.245c0.039,0.2,0.276,0.293,0.439,0.387c0.334,0.149,0.738,0.38,1.117,0.22
						c-0.032,0.024-0.056,0.06-0.086,0.08c0.108,0.106-0.081,0.22,0.046,0.32c0.025,0.082-0.082,0.068-0.088,0.133
						c0.063,0.112-0.019,0.311,0.162,0.349c0.046,0.062,0,0.156-0.073,0.163C58.088,71.201,57.92,71.195,57.858,71.332
						L57.858,71.332z M55.842,69.455c0.113-0.113,0.219-0.249,0.256-0.407l0.214,0.107c-0.195,0.011-0.301,0.206-0.451,0.313
						L55.842,69.455L55.842,69.455z M57.589,64.363c-0.038-0.088,0.07-0.182-0.032-0.239c-0.288,0.133-0.181,0.451-0.377,0.659
						c-0.032,0.163-0.244,0.081-0.343,0.168c-0.077-0.117-0.226-0.112-0.332-0.044c-0.149,0-0.174-0.306-0.332-0.149
						c-0.042,0.051-0.018,0.162-0.137,0.117c-0.025-0.042-0.07-0.049-0.1-0.073c-0.006-0.095,0.157-0.083,0.1-0.195
						c-0.113-0.201-0.358-0.169-0.507-0.32h-0.138c0.739-0.781,1.665-1.125,2.671-1.256c-0.013,0.45-0.048,0.957,0.095,1.363
						C58.001,64.2,57.782,64.444,57.589,64.363L57.589,64.363z M58.083,62.334c-0.326-0.073-0.633,0.077-0.945,0.107
						c-0.701,0.177-1.312,0.564-1.907,0.989c-0.032,0.049-0.063,0.092-0.095,0.137c-0.432-0.382-0.856-0.913-1.333-1.245
						c1.209-0.995,2.585-1.658,4.174-1.771l0.106-0.062C58.015,61.097,58.015,61.747,58.083,62.334L58.083,62.334z M51.307,57.907
						c1.983-1.426,4.216-2.284,6.731-2.384l-0.051,0.174l0.018,1.501l0.057,0.151c-2.44,0.112-4.565,1.026-6.392,2.691l-0.032,0.086
						c-0.42-0.45-0.889-0.969-1.381-1.331h-0.058C50.588,58.569,50.926,58.169,51.307,57.907L51.307,57.907z M46.653,66.016
						c0.32-2.585,1.419-4.849,3.203-6.834l0.043,0.169c0.427,0.42,0.852,0.863,1.259,1.245c-0.35,0.238-0.557,0.638-0.837,0.957
						c-1.122,1.589-1.759,3.366-1.879,5.361l0.046,0.245c-0.627-0.051-1.309-0.051-1.934,0
						C46.627,66.778,46.583,66.389,46.653,66.016L46.653,66.016z M48.099,73.327c-0.901-1.671-1.433-3.491-1.534-5.494l1.739,0.015
						l0.169-0.064c-0.025,0.095-0.012,0.214-0.019,0.351l-0.013-0.02c-0.049,0.039,0.038,0.057,0.032,0.095
						c0.032,0.662,0.151,1.289,0.301,1.903l0.088,0.135c-0.133-0.117-0.182-0.262-0.283-0.387c-0.143,0.024-0.3,0.055-0.406,0.152
						c0.068,0.179-0.112,0.122-0.195,0.173c-0.025-0.043-0.075-0.093-0.124-0.117c-0.133,0.006-0.27,0.018-0.326,0.149
						c0.019,0.094-0.089,0.138-0.125,0.213c-0.039,0.283-0.132,0.649,0.075,0.882c0.006,0.207,0.106,0.394,0.257,0.525
						c0.063,0.014,0.095-0.036,0.138-0.056c0.168,0.125,0.257,0.432,0.507,0.375c0.075-0.037,0.051-0.112,0.075-0.168
						c0.133,0.131,0.195,0.4,0.439,0.374c0.061,0.063,0.093,0.175,0.193,0.183c0.263-0.071,0.168,0.3,0.364,0.406
						c0.149,0.094,0.231,0.32,0.449,0.212l0.076-0.094c0.071,0.049,0.014,0.176,0.076,0.244c0.106,0.201,0.319,0.344,0.525,0.399
						c0.182,0.209,0.37,0.453,0.583,0.602l-0.152,0.064l-1.244,1.287C49.193,74.897,48.542,74.151,48.099,73.327L48.099,73.327z
						 M56.911,79.257c-2.514-0.343-4.715-1.431-6.668-3.12l1.289-1.295l0.019-0.076c1.783,1.723,3.942,2.584,6.381,2.752
						l0.193-0.049l-0.063,0.095v1.694l0.095,0.152C57.768,79.29,57.312,79.326,56.911,79.257L56.911,79.257z M58.427,72.171
						c-0.139,0.018-0.251,0.005-0.364-0.044c-0.057-0.006-0.037-0.068-0.057-0.106c0.183,0.006,0.271-0.212,0.465-0.181
						c0.113-0.101,0.131-0.271,0.286-0.327c-0.049-0.162,0.152-0.057,0.195-0.149c0.056-0.051,0.133-0.106,0.214-0.062
						c0.126,0.181,0.382,0.106,0.508,0.311c0.063,0.027,0.081-0.043,0.073-0.086v-0.077c0.202-0.018,0.301,0.269,0.513,0.077
						c0.051-0.044,0.04-0.139,0-0.182c-0.023-0.012-0.056-0.025-0.061-0.057c0.144-0.068,0.23,0.219,0.405,0.12
						c0.144-0.12,0.245-0.27,0.44-0.27l0.043,0.058c0.03,0.374-0.288,0.6-0.569,0.768c-0.182,0.076-0.513,0.051-0.5,0.344
						c-0.207,0.188-0.402-0.112-0.657-0.03c-0.119-0.063-0.007-0.238-0.169-0.269C58.927,72.12,58.614,71.87,58.427,72.171
						L58.427,72.171z M58.889,75.342c0.228,0.093,0.614-0.093,0.738,0.162c-0.068,0.145-0.182,0.283-0.137,0.451
						c0.094,0.233,0.23,0.538,0.526,0.557c0.073,0.099,0.174,0.124,0.275,0.162c-0.503,0.082-1.041,0.057-1.502,0.212
						c0.062-0.506,0-1.031,0-1.544l-0.095-0.138C58.783,75.217,58.826,75.292,58.889,75.342L58.889,75.342z M58.908,79.346
						L58.79,79.42c0.044-0.638,0.044-1.327,0-1.963c0.315,0.106,0.646-0.015,0.977-0.015l0.958-0.168
						c0.473,0.095,0.811,0.863,1.337,0.396c0.182-0.219,0.5-0.201,0.614-0.503c0.306-0.111,0.382-0.423,0.599-0.623
						c0.207-0.589,0.869-0.676,1.276-1.082c0.296-0.264,0.683-0.483,0.859-0.828l0.028,0.15l1.322,1.258
						C64.526,78.069,61.925,79.214,58.908,79.346L58.908,79.346z M70.395,67.879c-0.119,2.927-1.208,5.455-3.122,7.639l-0.051,0.092
						c-0.394-0.431-0.92-0.993-1.395-1.369c0.288-0.195,0.508-0.532,0.738-0.808c1.188-1.632,1.883-3.472,1.984-5.555l-0.063-0.169
						l0.106,0.075l1.784-0.011l0.091-0.046L70.395,67.879L70.395,67.879z"/>
					<path fill="#FFFFFF" d="M64.026,58.056c-0.005,0.069,0.007,0.13,0.045,0.181c0.263,0.095,0.293,0.476,0.629,0.39
						c0.101-0.115-0.061-0.234-0.03-0.377c-0.043-0.131-0.157-0.188-0.281-0.226C64.258,58.151,64.144,57.912,64.026,58.056
						L64.026,58.056z"/>
					<path fill="#FFFFFF" d="M59.028,56.993c0.331,0.426,0.907,0.187,1.319,0.106c0.301,0.125,0.589-0.024,0.814-0.212v-0.046
						c-0.212-0.298-0.614-0.344-0.976-0.374l-0.902,0.389c-0.073-0.033-0.218-0.072-0.269,0.03
						C58.975,56.919,59.015,56.963,59.028,56.993L59.028,56.993z"/>
				</g>
			</g>
		</g>
		<g>
			<g>
				<path fill="#FFFFFF" d="M40.827,96.911h1.023v5.139c0,1.758,0.534,2.203,1.502,2.203s1.502-0.445,1.502-2.203v-5.139h1.023
					v5.095c0,2.225-0.823,3.104-2.525,3.104s-2.525-0.879-2.525-3.104V96.911z"/>
				<path fill="#FFFFFF" d="M54.776,96.911v8.032h-1.402l-3.17-6.964h-0.022v6.964h-0.912v-8.032h1.446l3.126,6.875h0.022v-6.875
					H54.776z"/>
				<path fill="#FFFFFF" d="M59.346,104.943h-1.023v-8.032h1.023V104.943z"/>
				<path fill="#FFFFFF" d="M67.343,96.911v0.89H65.23v7.142h-1.023v-7.142h-2.114v-0.89H67.343z"/>
				<path fill="#FFFFFF" d="M69.956,104.943v-8.032h4.138v0.89h-3.115v2.581h2.892v0.89h-2.892v2.781h3.182v0.89H69.956z"/>
				<path fill="#FFFFFF" d="M77.097,96.911h2.47c1.023,0,1.758,0.367,2.158,1.224c0.323,0.679,0.356,2.281,0.356,2.536
					c0,1.713-0.156,2.703-0.489,3.237c-0.434,0.69-1.246,1.035-2.648,1.035h-1.847V96.911z M78.12,104.053h0.968
					c1.424,0,1.947-0.534,1.947-2.403v-1.624c0-1.624-0.501-2.225-1.569-2.225H78.12V104.053z"/>
				<path fill="#FFFFFF" d="M95.015,96.911v8.032h-1.402l-3.17-6.964h-0.022v6.964h-0.912v-8.032h1.446l3.126,6.875h0.022v-6.875
					H95.015z"/>
				<path fill="#FFFFFF" d="M100.243,96.911h1.302l2.614,8.032h-1.146l-0.578-1.913H99.33l-0.601,1.913h-1.035L100.243,96.911z
					 M100.865,97.856h-0.022l-1.257,4.283h2.57L100.865,97.856z"/>
				<path fill="#FFFFFF" d="M110.464,96.911v0.89h-2.114v7.142h-1.023v-7.142h-2.114v-0.89H110.464z"/>
				<path fill="#FFFFFF" d="M114.234,104.943h-1.023v-8.032h1.023V104.943z"/>
				<path fill="#FFFFFF" d="M117.693,102.006v-2.636c0-1.602,0.823-2.625,2.525-2.625c1.702,0,2.525,1.023,2.525,2.625v2.636
					c0,2.225-0.823,3.104-2.525,3.104C118.517,105.11,117.693,104.231,117.693,102.006z M121.698,102.05v-2.714
					c0-1.68-1.157-1.735-1.48-1.735c-0.323,0-1.48,0.056-1.48,1.735v2.714c0,1.758,0.512,2.203,1.48,2.203
					C121.186,104.253,121.698,103.808,121.698,102.05z"/>
				<path fill="#FFFFFF" d="M131.641,96.911v8.032h-1.402l-3.17-6.964h-0.022v6.964h-0.912v-8.032h1.446l3.126,6.875h0.022v-6.875
					H131.641z"/>
				<path fill="#FFFFFF" d="M135.845,102.551v0.234c0,1.09,0.69,1.435,1.346,1.435c0.812,0,1.435-0.345,1.435-1.302
					c0-1.78-3.604-1.58-3.604-3.994c0-1.424,1.012-2.18,2.358-2.18c1.468,0,2.292,0.712,2.225,2.347h-1.068
					c0.011-0.879-0.267-1.457-1.235-1.457c-0.612,0-1.235,0.311-1.235,1.179c0,1.769,3.604,1.513,3.604,4.06
					c0,1.691-1.168,2.236-2.492,2.236c-2.37,0.022-2.37-1.791-2.347-2.559H135.845z"/>
				<path fill="#FFFFFF" d="M146.822,104.943v-8.032h1.023v3.526h0.033l2.803-3.526h1.157l-2.915,3.627l3.081,4.405h-1.313
					l-2.814-4.194h-0.033v4.194H146.822z"/>
				<path fill="#FFFFFF" d="M154.53,102.006v-2.636c0-1.602,0.823-2.625,2.525-2.625c1.702,0,2.525,1.023,2.525,2.625v2.636
					c0,2.225-0.823,3.104-2.525,3.104C155.353,105.11,154.53,104.231,154.53,102.006z M158.535,102.05v-2.714
					c0-1.68-1.157-1.735-1.48-1.735c-0.323,0-1.48,0.056-1.48,1.735v2.714c0,1.758,0.512,2.203,1.48,2.203
					C158.023,104.253,158.535,103.808,158.535,102.05z"/>
				<path fill="#FFFFFF" d="M163.706,102.551v0.234c0,1.09,0.69,1.435,1.346,1.435c0.812,0,1.435-0.345,1.435-1.302
					c0-1.78-3.604-1.58-3.604-3.994c0-1.424,1.012-2.18,2.358-2.18c1.468,0,2.292,0.712,2.225,2.347h-1.068
					c0.011-0.879-0.267-1.457-1.235-1.457c-0.612,0-1.235,0.311-1.235,1.179c0,1.769,3.604,1.513,3.604,4.06
					c0,1.691-1.168,2.236-2.492,2.236c-2.369,0.022-2.369-1.791-2.347-2.559H163.706z"/>
				<path fill="#FFFFFF" d="M170.624,102.006v-2.636c0-1.602,0.823-2.625,2.525-2.625c1.702,0,2.525,1.023,2.525,2.625v2.636
					c0,2.225-0.823,3.104-2.525,3.104C171.447,105.11,170.624,104.231,170.624,102.006z M174.629,102.05v-2.714
					c0-1.68-1.157-1.735-1.48-1.735c-0.323,0-1.48,0.056-1.48,1.735v2.714c0,1.758,0.512,2.203,1.48,2.203
					C174.117,104.253,174.629,103.808,174.629,102.05z"/>
				<path fill="#FFFFFF" d="M181.802,104.943h-1.224l-2.325-8.032h1.112l1.836,7.064h0.022l1.88-7.064h1.046L181.802,104.943z"/>
				<path fill="#FFFFFF" d="M186.718,102.006v-2.636c0-1.602,0.823-2.625,2.525-2.625s2.525,1.023,2.525,2.625v2.636
					c0,2.225-0.823,3.104-2.525,3.104S186.718,104.231,186.718,102.006z M190.723,102.05v-2.714c0-1.68-1.157-1.735-1.48-1.735
					s-1.48,0.056-1.48,1.735v2.714c0,1.758,0.512,2.203,1.48,2.203S190.723,103.808,190.723,102.05z"/>
				<path fill="#FFFFFF" d="M203.636,96.911v0.89h-2.114v7.142h-1.023v-7.142h-2.114v-0.89H203.636z"/>
				<path fill="#FFFFFF" d="M206.248,104.943v-8.032h4.138v0.89h-3.115v2.581h2.892v0.89h-2.892v2.781h3.182v0.89H206.248z"/>
				<path fill="#FFFFFF" d="M215.18,96.911h1.302l2.614,8.032h-1.146l-0.578-1.913h-3.104l-0.601,1.913h-1.035L215.18,96.911z
					 M215.803,97.856h-0.022l-1.257,4.283h2.57L215.803,97.856z"/>
				<path fill="#FFFFFF" d="M222.687,104.943h-0.957v-8.032h1.658l2.025,6.741h0.022l2.047-6.741h1.691v8.032h-1.023v-7.142h-0.022
					l-2.247,7.142h-0.968l-2.203-7.142h-0.022V104.943z"/>
			</g>
		</g>
	</g>
</g>
</svg>
