<?xml version="1.0" encoding="utf-8"?>
<!-- Generator: Adobe Illustrator 17.0.0, SVG Export Plug-In . SVG Version: 6.00 Build 0)  -->
<!DOCTYPE svg PUBLIC "-//W3C//DTD SVG 1.1//EN" "http://www.w3.org/Graphics/SVG/1.1/DTD/svg11.dtd">
<svg version="1.1" id="Layer_1" xmlns="http://www.w3.org/2000/svg" xmlns:xlink="http://www.w3.org/1999/xlink" x="0px" y="0px"
	 width="188.347px" height="8.366px" viewBox="0 41.898 188.347 8.366" enable-background="new 0 41.898 188.347 8.366"
	 xml:space="preserve">
<g>
	<g>
		<path fill="#FFFFFF" d="M0,42.065h1.023v5.139c0,1.758,0.534,2.203,1.502,2.203s1.502-0.445,1.502-2.203v-5.139H5.05v5.095
			c0,2.225-0.823,3.104-2.525,3.104S0,49.385,0,47.16V42.065z"/>
		<path fill="#FFFFFF" d="M13.949,42.065v8.032h-1.402l-3.17-6.964H9.354v6.964H8.442v-8.032h1.446l3.126,6.875h0.022v-6.875
			C13.036,42.065,13.949,42.065,13.949,42.065z"/>
		<path fill="#FFFFFF" d="M18.519,50.097h-1.023v-8.032h1.023V50.097z"/>
		<path fill="#FFFFFF" d="M26.516,42.065v0.89h-2.114v7.142h-1.023v-7.142h-2.114v-0.89C21.265,42.065,26.516,42.065,26.516,42.065z
			"/>
		<path fill="#FFFFFF" d="M29.129,50.097v-8.032h4.138v0.89h-3.115v2.581h2.892v0.89h-2.892v2.781h3.182v0.89H29.129z"/>
		<path fill="#FFFFFF" d="M36.27,42.065h2.47c1.023,0,1.758,0.367,2.158,1.224c0.323,0.679,0.356,2.281,0.356,2.536
			c0,1.713-0.156,2.703-0.489,3.237c-0.434,0.69-1.246,1.035-2.648,1.035H36.27V42.065z M37.294,49.207h0.968
			c1.424,0,1.947-0.534,1.947-2.403V45.18c0-1.624-0.501-2.225-1.569-2.225h-1.346C37.294,42.955,37.294,49.207,37.294,49.207z"/>
		<path fill="#FFFFFF" d="M54.189,42.065v8.032h-1.402l-3.17-6.964h-0.022v6.964h-0.912v-8.032h1.446l3.126,6.875h0.022v-6.875
			C53.277,42.065,54.189,42.065,54.189,42.065z"/>
		<path fill="#FFFFFF" d="M59.416,42.065h1.302l2.614,8.032h-1.146l-0.578-1.913h-3.104l-0.601,1.913h-1.035L59.416,42.065z
			 M60.039,43.011h-0.022l-1.257,4.283h2.57L60.039,43.011z"/>
		<path fill="#FFFFFF" d="M69.638,42.065v0.89h-2.114v7.142h-1.023v-7.142h-2.114v-0.89C64.387,42.065,69.638,42.065,69.638,42.065z
			"/>
		<path fill="#FFFFFF" d="M73.407,50.097h-1.023v-8.032h1.023V50.097z"/>
		<path fill="#FFFFFF" d="M76.867,47.16v-2.636c0-1.602,0.823-2.625,2.525-2.625s2.525,1.023,2.525,2.625v2.636
			c0,2.225-0.823,3.104-2.525,3.104S76.867,49.385,76.867,47.16z M80.871,47.205V44.49c0-1.68-1.157-1.735-1.48-1.735
			s-1.48,0.056-1.48,1.735v2.714c0,1.758,0.512,2.203,1.48,2.203S80.871,48.962,80.871,47.205z"/>
		<path fill="#FFFFFF" d="M90.815,42.065v8.032h-1.402l-3.17-6.964H86.22v6.964h-0.912v-8.032h1.446l3.126,6.875h0.022v-6.875
			C89.902,42.065,90.815,42.065,90.815,42.065z"/>
		<path fill="#FFFFFF" d="M95.018,47.705v0.234c0,1.09,0.69,1.435,1.346,1.435c0.812,0,1.435-0.345,1.435-1.302
			c0-1.78-3.604-1.58-3.604-3.994c0-1.424,1.012-2.18,2.358-2.18c1.468,0,2.292,0.712,2.225,2.347H97.71
			c0.011-0.879-0.267-1.457-1.235-1.457c-0.612,0-1.235,0.311-1.235,1.179c0,1.769,3.604,1.513,3.604,4.06
			c0,1.691-1.168,2.236-2.492,2.236c-2.369,0.022-2.369-1.791-2.347-2.559L95.018,47.705L95.018,47.705z"/>
		<path fill="#FFFFFF" d="M105.996,50.097v-8.032h1.023v3.526h0.033l2.803-3.526h1.157l-2.915,3.627l3.081,4.405h-1.313
			l-2.814-4.194h-0.033v4.194H105.996z"/>
		<path fill="#FFFFFF" d="M113.703,47.16v-2.636c0-1.602,0.823-2.625,2.525-2.625s2.525,1.023,2.525,2.625v2.636
			c0,2.225-0.823,3.104-2.525,3.104C114.527,50.264,113.703,49.385,113.703,47.16z M117.708,47.205V44.49
			c0-1.68-1.157-1.735-1.48-1.735c-0.323,0-1.48,0.056-1.48,1.735v2.714c0,1.758,0.512,2.203,1.48,2.203
			S117.708,48.962,117.708,47.205z"/>
		<path fill="#FFFFFF" d="M122.879,47.705v0.234c0,1.09,0.69,1.435,1.346,1.435c0.812,0,1.435-0.345,1.435-1.302
			c0-1.78-3.604-1.58-3.604-3.994c0-1.424,1.012-2.18,2.358-2.18c1.468,0,2.292,0.712,2.225,2.347h-1.068
			c0.011-0.879-0.267-1.457-1.235-1.457c-0.612,0-1.235,0.311-1.235,1.179c0,1.769,3.604,1.513,3.604,4.06
			c0,1.691-1.168,2.236-2.492,2.236c-2.369,0.022-2.369-1.791-2.347-2.559L122.879,47.705L122.879,47.705z"/>
		<path fill="#FFFFFF" d="M129.797,47.16v-2.636c0-1.602,0.823-2.625,2.525-2.625s2.525,1.023,2.525,2.625v2.636
			c0,2.225-0.823,3.104-2.525,3.104S129.797,49.385,129.797,47.16z M133.802,47.205V44.49c0-1.68-1.157-1.735-1.48-1.735
			s-1.48,0.056-1.48,1.735v2.714c0,1.758,0.512,2.203,1.48,2.203C133.29,49.407,133.802,48.962,133.802,47.205z"/>
		<path fill="#FFFFFF" d="M140.976,50.097h-1.224l-2.325-8.032h1.112l1.836,7.064h0.022l1.88-7.064h1.046L140.976,50.097z"/>
		<path fill="#FFFFFF" d="M145.891,47.16v-2.636c0-1.602,0.823-2.625,2.525-2.625s2.525,1.023,2.525,2.625v2.636
			c0,2.225-0.823,3.104-2.525,3.104S145.891,49.385,145.891,47.16z M149.896,47.205V44.49c0-1.68-1.157-1.735-1.48-1.735
			s-1.48,0.056-1.48,1.735v2.714c0,1.758,0.512,2.203,1.48,2.203S149.896,48.962,149.896,47.205z"/>
		<path fill="#FFFFFF" d="M162.809,42.065v0.89h-2.114v7.142h-1.023v-7.142h-2.114v-0.89
			C157.558,42.065,162.809,42.065,162.809,42.065z"/>
		<path fill="#FFFFFF" d="M165.422,50.097v-8.032h4.138v0.89h-3.115v2.581h2.892v0.89h-2.892v2.781h3.182v0.89H165.422z"/>
		<path fill="#FFFFFF" d="M174.353,42.065h1.302l2.614,8.032h-1.146l-0.578-1.913h-3.104l-0.601,1.913h-1.035L174.353,42.065z
			 M174.976,43.011h-0.022l-1.257,4.283h2.57L174.976,43.011z"/>
		<path fill="#FFFFFF" d="M181.861,50.097h-0.957v-8.032h1.658l2.025,6.741h0.022l2.047-6.741h1.691v8.032h-1.023v-7.142h-0.022
			l-2.247,7.142h-0.968l-2.203-7.142h-0.022L181.861,50.097L181.861,50.097z"/>
	</g>
</g>
</svg>
